<svg width="1000" height="1000" viewBox="0 0 1000 1000" fill="none" xmlns="http://www.w3.org/2000/svg">
<path fill-rule="evenodd" clip-rule="evenodd" d="M982.1 652.4V703.2C982.1 704.067 982.1 704.934 982.1 705.8V706L982 706.3V706.7C982 707.034 981.967 707.367 981.9 707.7C981.833 709.234 981.667 710.734 981.4 712.2C981.333 712.6 981.267 712.967 981.2 713.3C980.867 715.167 980.433 717.033 979.9 718.9C979.833 719.233 979.733 719.6 979.6 720C979 722 978.3 723.9 977.5 725.6C977.3 726 977.1 726.4 976.9 726.8C976 728.7 975 730.5 973.9 732.2C973 733.6 972.1 734.8 971.1 736.1C970.767 736.5 970.433 736.9 970.1 737.3C969.7 737.8 969.2 738.3 968.7 738.9C968.367 739.3 968.034 739.667 967.7 740C966.6 741.1 965.6 742 964.5 743C964.3 743.133 964.1 743.3 963.9 743.5C963.033 744.233 962.134 744.933 961.2 745.6C960.8 745.867 960.433 746.133 960.1 746.4H960C959.5 746.8 959 747.1 958.4 747.5C958 747.767 957.6 748 957.2 748.2C955.9 749 954.5 749.8 953.1 750.5C952.7 750.7 952.266 750.9 951.8 751.1C950.733 751.567 949.633 752.033 948.5 752.5C948.033 752.7 947.533 752.9 947 753.1C946.667 753.233 946.333 753.333 946 753.4C945.467 753.6 944.933 753.8 944.4 754H944.3C943.766 754.2 943.234 754.367 942.7 754.5C942.034 754.7 941.3 754.9 940.5 755.1H940.4C939.933 755.233 939.433 755.367 938.9 755.5C938.1 755.7 937.3 755.8 936.5 756C936.033 756.067 935.6 756.167 935.2 756.3C934.4 756.434 933.6 756.567 932.8 756.7H932.7L932 756.8L931.4 756.9C930.8 757 930.2 757 929.7 757.1H929.5H929.3C928.833 757.167 928.333 757.234 927.8 757.3C927.133 757.367 926.466 757.433 925.8 757.5H925.6H925.5C925.1 757.5 924.667 757.533 924.2 757.6C923.6 757.6 922.9 757.6 922.4 757.7H922.1H921.9C921.5 757.7 921.033 757.7 920.5 757.7C919.3 757.767 918.1 757.8 916.9 757.8H858.5C846 757.8 833 756.7 820.1 754.5L815.3 753.7L805.2 793.6L800.2 813.5L790.3 816.1L780.4 818.8L509.3 890.9L504.8 892.1L500.4 893.2L495.9 892.1L491.4 890.9L220.3 818.8L210.4 816.1L200.5 813.5L195.5 793.6L186.3 757.1H150.3V727.8H128L125.5 734.5L121.3 745.8L117.1 757.1H18.6001V664.8L19.8999 661.7L21.2002 658.5L75.2998 525.3L79.7002 514.5L84.1001 503.6H122.6L77.2998 323.5L73 306.4L68.7002 289.3L85.7998 285.2L103 281.2L257.4 244.6C267.3 230.5 278.6 217.4 291.1 205.3C317.6 179.7 348.6 158.6 385.7 140.8C424.9 122.2 459.2 112 493.7 108.9C506.4 107.8 530.2 106.6 538.3 106.2C542.8 106.1 547.3 106 551.8 106C587.3 106 621.2 112.2 652.7 124.4C705.8 145.1 742.5 175.8 764.9 218.3C770.7 229.4 775.6 241.1 779.3 253.1L897.8 281.2L914.9 285.2L932.1 289.3L927.8 306.4L923.5 323.5L878.2 503.6H916.4L920.8 514.6L925.1 525.6L934.7 549.8L935.9 552.8L937.1 555.9V567C937.233 567.133 937.4 567.233 937.6 567.3C952.1 577 963.3 591.5 971 610.5L975 620.3C979.8 632 982.1 642.6 982.1 652.4ZM964.7 652.4C964.7 644.8 962.8 636.4 958.9 626.8L954.9 617C948.6 601.3 939.5 589.5 927.9 581.8C925.367 580.067 922.634 578.534 919.7 577.2V559.2L918.5 556.2L908.9 532L904.6 521H855.9L906.6 319.3L910.9 302.2L893.7 298.1L765.3 267.6C761.7 253.3 756.4 239.5 749.5 226.5C729.1 187.8 695.4 159.7 646.4 140.6C616.9 129.2 585.1 123.3 551.8 123.3C547.6 123.3 543.3 123.4 539 123.6C531 124 507.6 125.1 495.3 126.2C462.9 129.2 430.5 138.8 393.2 156.5C357.8 173.4 328.3 193.5 303.2 217.8C289.8 230.8 278 244.9 267.9 260L107 298.1L89.7998 302.2L94.1001 319.3L144.9 521H95.7998L91.3999 531.9L37.2998 665.1L36 668.2V739.8H105L109.2 728.4L118.4 703.6L120 710.4H167.6V739.8H199.9L212.4 789.4L214.9 799.3L224.8 802L495.9 874.1L500.4 875.2L504.8 874.1L776 802L785.9 799.3L788.3 789.4L801.5 737.1C802.233 736.767 802.933 736.433 803.6 736.1C803.867 735.967 804.133 735.867 804.4 735.8C805.4 735.267 806.366 734.7 807.3 734.1C807.5 733.967 807.767 733.8 808.1 733.6C808.3 733.467 808.5 733.367 808.7 733.3C808.9 733.167 809.1 733.033 809.3 732.9V732.8C809.833 732.467 810.333 732.134 810.8 731.8C810.866 731.734 810.933 731.667 811 731.6L812.2 735.6L823 737.4C835 739.4 846.9 740.4 858.5 740.4H916.9C917.967 740.4 919 740.4 920 740.4C920.4 740.333 920.733 740.3 921 740.3H921.3H921.6C922.133 740.3 922.633 740.267 923.1 740.2C923.433 740.2 923.767 740.167 924.1 740.1H924.2H924.5C925.033 740.1 925.567 740.067 926.1 740C926.5 739.933 926.867 739.9 927.2 739.9L927.4 739.8H927.7C928.167 739.734 928.6 739.667 929 739.6H929.7V739.5C930.5 739.433 931.267 739.334 932 739.2C932.333 739.134 932.633 739.067 932.9 739H933C933.6 738.8 934.3 738.7 935 738.6C935.333 738.467 935.667 738.367 936 738.3H936.1L936.2 738.2C936.8 738.067 937.367 737.934 937.9 737.8C938.233 737.667 938.567 737.567 938.9 737.5L939.1 737.4C939.567 737.267 940 737.133 940.4 737C940.6 736.933 940.8 736.867 941 736.8C941.4 736.667 941.7 736.533 941.9 736.4C942.833 736.067 943.733 735.7 944.6 735.3C944.867 735.167 945.133 735.033 945.4 734.9C946.4 734.433 947.4 733.9 948.4 733.3C948.6 733.167 948.8 733 949 732.8C949.4 732.6 949.767 732.367 950.1 732.1H950.2C950.4 731.9 950.633 731.7 950.9 731.5C951.567 731.033 952.2 730.567 952.8 730.1C952.933 729.967 953.033 729.867 953.1 729.8C953.833 729.2 954.534 728.534 955.2 727.8C955.467 727.6 955.7 727.367 955.9 727.1C956.233 726.767 956.533 726.433 956.8 726.1C957 725.833 957.2 725.6 957.4 725.4C958.067 724.533 958.7 723.667 959.3 722.8C960 721.7 960.6 720.5 961.3 719.2C961.366 718.934 961.467 718.7 961.6 718.5C962.133 717.3 962.6 716.067 963 714.8C963.067 714.534 963.134 714.3 963.2 714.1C963.6 712.833 963.9 711.567 964.1 710.3C964.167 710.034 964.2 709.8 964.2 709.6C964.4 708.467 964.533 707.367 964.6 706.3C964.6 706.1 964.6 705.9 964.6 705.7L964.7 705.3C964.7 704.567 964.7 703.867 964.7 703.2V652.4ZM198 539.4L146.8 335.9L271.6 306.3C283.5 280.5 300 257.1 321.3 236.5C345.7 212.9 373.9 194.6 404.4 180C434.1 165.9 464.8 155.1 497.6 152.1C508.2 151.2 529.5 150.1 540.1 149.6C573.3 148.2 605.8 152.8 636.9 164.9C674.7 179.6 706.9 201.6 726.4 238.6C737.4 259.4 743.4 281.9 744.7 305.5C744.767 307.167 744.733 308.833 744.6 310.5L851.5 335.9L804.3 523.6C796.5 525.7 790.4 529.1 785.8 534C784.466 532.867 783.1 531.8 781.7 530.8C778.434 528.467 774.8 526.5 770.8 524.9L812.3 359.7L737.6 332.7C733.1 341.7 733.5 351.1 736.5 360.6C739.8 371 742.4 381.6 746.5 391.8C749.3 398.9 746.6 404.7 739.8 407.8C731.7 411.5 723.2 411.5 714.7 410.4C710.2 409.8 706.2 407.1 705.5 401.9C703.1 384.6 693.4 371 682 358.8C650.3 325 610.5 312 564.9 315C521.8 317.8 481.8 332.4 442.2 348.4C394.9 367.4 347.8 386.8 300.7 406.1C283.3 413.3 274.9 411.3 263 396.7C254.1 385.7 251.4 372.8 254.2 359.5C256.134 350.233 258.533 341.233 261.4 332.5L186.1 359.7L226.7 521.3H214.6L209.5 526.8L198 539.4ZM438.8 434V449.2H472V464.9H438.8V481.2H481V497H418.5V418.2H481V434H438.8ZM511.9 418.2H534.4L564.2 497H542.3L537.2 482.9H509.1L504 497H482.1L511.9 418.2ZM514.1 468.3H532.1L523.1 441.8L514.1 468.3ZM637.3 497V453.1L621.6 481.3H605.8L590.1 453.1V497H569.8V418.3H591.2L613.7 459.9L636.2 418.3H657.6V497H637.3ZM263 368.2C263 369.9 262.1 372.1 265.4 372.8C272.6 374.1 279 374.1 284.8 368.6C288.6 365 293.4 362.5 297.9 359.7C315.2 348.8 332.6 338.1 352.9 333.6C356.5 332.8 360.3 331.1 363.9 333.7C354.7 338.2 345.4 342.4 336.6 347.7C321.6 356.6 306.9 365.9 293.1 376.7C285.4 382.8 285.4 382.7 288.2 391.6C288.6 392.7 289.1 393.9 289.1 395.1C289.1 400.1 291.6 400 295.4 398.4C319.9 388.2 344.4 378.1 368.9 368C410.5 350.8 451.9 333.1 494.9 319.5C525.2 309.9 556.2 303.9 588.2 305.9C610.5 307.3 631.6 312.7 651.4 323.6C657.3 326.9 661.9 332.3 668.8 333.9C669.2 334.233 669.6 334.6 670 335C671.2 335.1 672.1 335.4 672.4 336.7C671.6 336.167 670.833 335.633 670.1 335.1C670.833 335.633 671.6 336.167 672.4 336.7C686.5 348.8 698.6 362.5 707.6 379C711.9 387 716.5 388.2 725.9 385.3C731 383.6 733.5 380.7 731.6 375.2C730.3 371.4 729.2 367.5 727.9 363.7C723.2 350.7 723.6 338.4 731 326.3C734.8 319.9 735.4 312.5 735.4 305.1C735.3 295.7 733.3 286.6 731.1 277.5C723.4 244.9 706.6 218.3 679.4 198.5C641.1 170.7 597.6 160 551.3 158.8C512.6 157.9 474.8 162.6 438.3 176.2C398.6 191 362.3 211.5 330.8 240.2C302.7 265.8 284.1 297.6 270.9 332.8C266.6 344.2 262.7 355.8 263 368.2ZM562.8 240.4C562.7 231.4 568.9 225.2 578 225.2C586.7 225.1 593.3 231.8 593.3 240.6C593.2 248.7 586.4 255.6 578.2 255.8C569.9 256 562.8 249 562.8 240.4ZM629.9 266.9C629.9 275.4 623.1 282.6 614.8 282.7C606.4 282.8 599.3 275.7 599.4 267.2C599.4 258.4 606 251.8 614.8 251.9C623.2 252 629.9 258.6 629.9 266.9ZM374.5 298.7C362.6 282.4 361.7 257.8 372.5 240.8C383.9 223 405.3 213.6 425.4 217.5C464.6 225.1 481.1 268.7 456.9 300.4C456.2 301.4 455.6 302.4 455 303.4C440.5 317.6 423.3 322.4 403.5 318.7C392.1 314.5 381.9 308.8 374.5 298.7ZM380.5 268.7C380.5 273.8 384.9 278.2 390.9 278.6C394.3 278.8 397.9 279 401.2 278.5C405.9 277.8 406.8 279.8 406.6 283.9C406.4 287.5 406.5 291.2 406.8 294.8C407.3 300.4 411.5 303.9 417.1 303.7C422.6 303.5 426.2 300.1 426.6 294.6C426.8 290.9 426.8 287.2 426.6 283.6C426.2 279.5 427.5 277.6 431.9 278C435.7 278.2 439.6 278.1 443.4 277.8C448.7 277.3 452.2 273.2 452.2 267.9C452.1 262.1 448 258.4 441.4 258.1C436.8 257.9 431.1 260 427.8 257.3C424.3 254.4 427.1 248.5 426.5 244C426.5 243.8 426.5 243.6 426.5 243.4C425.9 236.5 421.8 232.3 415.8 232.6C410.1 232.8 406.4 237 406 243.6C405.7 248.2 408 254.1 405.1 257.1C402 260.4 395.9 257.9 391.1 258.3C384.9 258.9 380.5 263.1 380.5 268.7ZM514.8 642.2L514.9 669.5C505.1 671.3 495.367 672.2 485.7 672.2H433.7C419.4 672.2 409.1 669 403 662.5C397 656.1 394.6 646.3 396 633.1L402.1 572.9C403.3 560.5 407.3 551.8 414.1 546.4C420.7 541.067 430.8 538.4 444.4 538.4H514.3L514.4 562.5H450.8C442.9 562.5 438.7 566 438.2 573.2L434.1 633.8C433.9 636.867 434.7 639.3 436.5 641.1C438.3 642.967 440.833 643.9 444.1 643.9H476.4C480.267 643.9 484.066 643.334 487.8 642.2H514.8ZM564.8 671.6H525.3L522.6 538.4H557.6L560.2 586.9H611.1L606.1 538.4H641.1L659.1 671.6H619.6L613.7 613.4H561.6L564.8 671.6ZM942.9 633.4C948.2 646.4 948.8 656.2 944.7 662.6C940.567 669 931.333 672.2 917 672.2H858.6C847.867 672.2 836.967 671.267 825.9 669.4L818.1 642.7H897.5C900.767 642.7 903.033 641.833 904.3 640.1C905.566 638.367 905.667 636.033 904.6 633.1L898.3 616.3H850.3C835.7 616.3 824.1 613.2 815.7 607.1C807.3 601.1 801.3 591.5 797.6 578.6L796 573.2C792.4 560.8 792.9 551.9 797.5 546.4C802.033 541.067 811.1 538.4 824.7 538.4H892.8L902.4 562.5H840.6C832.6 562.5 829.767 566.067 832.1 573.2L833.3 576.8C835.7 584.1 840.9 587.8 849.1 587.8H885.7C899 587.8 909.9 590.6 918.4 596.3C927 602 933.8 611 938.9 623.5L942.9 633.4ZM232.7 640.2L228 658.5L224.6 671.7H185.1L208 593.5L163.8 642.3H133.8L122.1 593.5L93 671.7H53.5L107.6 538.5H144.5L161.3 604.8L222.1 538.5H259L232.7 640.2ZM805.5 632.2C809.5 646.4 809 657 803.9 663.6C798.767 670.4 788.5 673.8 773.1 673.8H718.2C702.8 673.8 691 670.4 683 663.6C675 657 670 646.4 667.8 632.2L658.4 571.5C656.5 559.1 658.2 550.2 663.6 544.8C668.867 539.4 678.266 536.733 691.8 536.8H740.3C753.9 536.8 764.4 539.4 772 544.8C779.7 550.2 785.2 559.1 788.7 571.5L805.5 632.2ZM767.3 632.2L752.6 571.4C750.8 564.3 746 560.8 738.1 560.8H704.3C696.4 560.8 693.1 564.3 694.5 571.4L705.9 632.2C707.4 640.2 712.5 644.3 721 644.3H757.5C766 644.3 769.3 640.2 767.3 632.2ZM358.8 536.7C372.4 536.7 381.9 539.4 387.4 544.8C392.9 550.2 395 559 393.5 571.4L386.5 632.2C384.8 646.4 380.1 657 372.4 663.6C364.7 670.4 353 673.8 337.6 673.8H282.7C267.3 673.8 256.9 670.4 251.5 663.6C246.2 657 245.3 646.4 248.7 632.2L263.2 571.4C266.2 559 271.5 550.2 278.9 544.8C286.3 539.4 296.8 536.7 310.3 536.7H358.8ZM347.2 560.8H313.5C305.5 560.8 300.8 564.3 299.4 571.4L286.9 632.2C285.2 640.2 288.7 644.3 297.2 644.3H333.7C342.2 644.3 347.1 640.2 348.3 632.2L357.5 571.4C358.6 564.3 355.1 560.8 347.2 560.8ZM410.7 434H387.1V497H366.9V434H343.2V418.3H410.7V434ZM595.8 209.1C595.8 200.1 602.1 193.6 610.8 193.6C619.5 193.7 626.4 200.4 626.3 208.9C626.2 217.4 619.1 224.3 610.7 224.2C602.4 224.1 595.8 217.5 595.8 209.1ZM280.9 736.6L462.6 818.3L254.3 762.9L237.3 695.4L246.7 675.6V697.9C246.7 704.767 248.333 710.234 251.6 714.3C256.333 720.367 265.1 723.733 277.9 724.4L280.9 736.6ZM720.6 724.4H753.8L744.1 762.8L535.8 818.2L717.5 736.6L720.6 724.4Z" fill="white"/>
</svg>
