<svg width="1000" height="1000" viewBox="0 0 1000 1000" fill="none" xmlns="http://www.w3.org/2000/svg">
<path fill-rule="evenodd" clip-rule="evenodd" d="M982.1 652.4V703.2C982.1 704.067 982.067 704.934 982 705.8V706V706.3V706.7C981.933 707.034 981.9 707.367 981.9 707.7C981.767 709.234 981.6 710.734 981.4 712.2C981.333 712.6 981.266 712.967 981.2 713.3C980.866 715.167 980.433 717.033 979.9 718.9C979.767 719.233 979.633 719.6 979.5 720C978.9 722 978.2 723.9 977.4 725.6C977.267 726 977.1 726.4 976.9 726.8C975.9 728.7 974.9 730.5 973.8 732.2C973 733.6 972.1 734.8 971 736.1C970.667 736.5 970.367 736.9 970.1 737.3C969.6 737.8 969.2 738.3 968.6 738.9C968.267 739.3 967.933 739.667 967.6 740C966.6 741.1 965.5 742 964.4 743C964.2 743.133 964 743.3 963.8 743.5C962.933 744.233 962.033 744.933 961.1 745.6C960.767 745.867 960.4 746.133 960 746.4C959.5 746.8 958.9 747.1 958.3 747.5C957.966 747.767 957.6 748 957.2 748.2C955.8 749 954.4 749.8 953.1 750.5C952.7 750.7 952.266 750.9 951.8 751.1C950.733 751.567 949.6 752.033 948.4 752.5C948 752.7 947.533 752.9 947 753.1C946.667 753.233 946.3 753.333 945.9 753.4C945.367 753.6 944.867 753.8 944.4 754H944.2C943.733 754.2 943.233 754.367 942.7 754.5C941.966 754.7 941.233 754.9 940.5 755.1H940.4C939.867 755.233 939.367 755.367 938.9 755.5C938.1 755.7 937.3 755.8 936.5 756C936.033 756.067 935.567 756.167 935.1 756.3C934.367 756.434 933.6 756.567 932.8 756.7H932.6L932 756.8L931.3 756.9C930.8 757 930.2 757 929.6 757.1H929.4H929.3C928.766 757.167 928.266 757.234 927.8 757.3C927.133 757.367 926.466 757.433 925.8 757.5H925.6H925.5C925.033 757.5 924.567 757.533 924.1 757.6C923.5 757.6 922.9 757.6 922.3 757.7H922H921.9C921.433 757.7 920.967 757.7 920.5 757.7C919.3 757.767 918.066 757.8 916.8 757.8H858.5C845.9 757.8 833 756.7 820 754.5L815.2 753.7L805.2 793.6L802.7 803.6L800.2 813.5L790.3 816.1L780.4 818.8L509.3 890.9L504.8 892.1L500.3 893.2L495.9 892.1L491.4 890.9L220.3 818.8L210.4 816.1L200.5 813.5L198 803.6L195.5 793.6L186.3 757.1H150.2V727.8H127.9L125.4 734.5L121.2 745.8L117 757.1H18.6001V664.8L19.8999 661.7L21.1001 658.5L75.1997 525.3L79.6001 514.5L84.1001 503.6H122.5L77.1997 323.5L72.8999 306.4L68.6001 289.3L85.7998 285.2L102.9 281.2L257.3 244.6C267.3 230.5 278.6 217.4 291 205.3C317.6 179.7 348.5 158.6 385.7 140.8C424.9 122.2 459.2 112 493.6 108.9C506.3 107.8 530.1 106.6 538.2 106.2C542.7 106.1 547.3 106 551.7 106C587.2 106 621.2 112.2 652.6 124.4C705.7 145.1 742.4 175.8 764.9 218.3C770.7 229.4 775.5 241.1 779.2 253.1L897.7 281.2L914.9 285.2L932 289.3L927.7 306.4L923.4 323.5L878.1 503.6H916.4L920.7 514.6L925.1 525.6L934.6 549.8L935.8 552.8L937 555.9V567C937.2 567.133 937.367 567.233 937.5 567.3C952 577 963.3 591.5 971 610.5L975 620.3C979.8 632 982.1 642.6 982.1 652.4ZM964.7 652.4C964.7 644.8 962.8 636.4 958.9 626.8L954.9 617C948.5 601.3 939.4 589.5 927.9 581.8C925.3 580.067 922.566 578.534 919.7 577.2V559.2L918.4 556.2L908.9 532L904.6 521H855.8L906.6 319.3L910.9 302.2L893.7 298.1L765.2 267.6C761.6 253.3 756.4 239.5 749.5 226.5C729.1 187.8 695.3 159.7 646.3 140.6C616.9 129.2 585.1 123.3 551.7 123.3C547.5 123.3 543.2 123.4 539 123.6C531 124 507.6 125.1 495.2 126.2C462.9 129.2 430.5 138.8 393.2 156.5C357.7 173.4 328.3 193.5 303.1 217.8C289.7 230.8 278 244.9 267.9 260L106.9 298.1L89.7998 302.2L94.1001 319.3L144.8 521H95.7998L91.3999 531.9L37.1997 665.1L36 668.2V739.8H104.9L109.1 728.4L118.4 703.6L120 710.4H167.6V739.8H199.9L212.3 789.4L214.8 799.3L224.7 802L495.9 874.1L500.3 875.2L504.8 874.1L775.9 802L785.8 799.3L788.3 789.4L801.5 737.1C802.233 736.767 802.933 736.433 803.6 736.1C803.867 735.967 804.1 735.867 804.3 735.8C805.3 735.267 806.266 734.7 807.2 734.1C807.466 733.967 807.767 733.8 808.1 733.6C808.3 733.467 808.467 733.367 808.6 733.3C808.8 733.167 809 733.033 809.2 732.9L809.3 732.8C809.766 732.467 810.233 732.134 810.7 731.8C810.833 731.734 810.933 731.667 811 731.6L812.2 735.6L822.9 737.4C834.9 739.4 846.9 740.4 858.5 740.4H916.8C917.933 740.4 919 740.4 920 740.4C920.333 740.333 920.667 740.3 921 740.3H921.3H921.6C922.067 740.3 922.567 740.267 923.1 740.2C923.367 740.2 923.667 740.167 924 740.1H924.2H924.5C925.033 740.1 925.567 740.067 926.1 740C926.433 739.933 926.8 739.9 927.2 739.9L927.4 739.8H927.7C928.166 739.734 928.6 739.667 929 739.6H929.6L929.7 739.5C930.5 739.433 931.267 739.334 932 739.2C932.333 739.134 932.633 739.067 932.9 739H933C933.6 738.8 934.3 738.7 934.9 738.6C935.233 738.467 935.567 738.367 935.9 738.3H936L936.2 738.2C936.733 738.067 937.266 737.934 937.8 737.8C938.133 737.667 938.5 737.567 938.9 737.5L939 737.4C939.467 737.267 939.933 737.133 940.4 737C940.6 736.933 940.8 736.867 941 736.8C941.333 736.667 941.633 736.533 941.9 736.4C942.767 736.067 943.633 735.7 944.5 735.3C944.767 735.167 945.033 735.033 945.3 734.9C946.3 734.433 947.3 733.9 948.3 733.3C948.566 733.167 948.8 733 949 732.8C949.4 732.6 949.767 732.367 950.1 732.1C950.367 731.9 950.633 731.7 950.9 731.5C951.5 731.033 952.1 730.567 952.7 730.1C952.833 729.967 952.967 729.867 953.1 729.8C953.833 729.2 954.533 728.534 955.2 727.8C955.4 727.6 955.6 727.367 955.8 727.1C956.133 726.767 956.466 726.433 956.8 726.1C957 725.833 957.166 725.6 957.3 725.4C958.033 724.533 958.666 723.667 959.2 722.8C959.9 721.7 960.6 720.5 961.2 719.2C961.333 718.934 961.467 718.7 961.6 718.5C962.067 717.3 962.533 716.067 963 714.8C963.067 714.534 963.133 714.3 963.2 714.1C963.533 712.833 963.833 711.567 964.1 710.3C964.1 710.034 964.133 709.8 964.2 709.6C964.333 708.467 964.467 707.367 964.6 706.3C964.6 706.1 964.6 705.9 964.6 705.7V705.3C964.667 704.567 964.7 703.867 964.7 703.2V652.4ZM198 539.4L146.8 335.9L271.6 306.3C283.5 280.5 299.9 257.1 321.3 236.5C345.7 212.9 373.8 194.6 404.4 180C434 165.9 464.8 155.1 497.6 152.1C508.2 151.2 529.5 150.1 540.1 149.6C573.2 148.2 605.8 152.8 636.8 164.9C674.7 179.6 706.9 201.6 726.4 238.6C737.4 259.4 743.4 281.9 744.7 305.5C744.7 307.167 744.667 308.833 744.6 310.5L851.5 335.9L804.3 523.6C796.5 525.7 790.3 529.1 785.7 534C784.433 532.867 783.1 531.8 781.7 530.8C778.366 528.467 774.7 526.5 770.7 524.9L812.3 359.7L737.5 332.7C733.1 341.7 733.5 351.1 736.5 360.6C739.8 371 742.4 381.6 746.4 391.8C749.3 398.9 746.6 404.7 739.7 407.8C731.7 411.5 723.1 411.5 714.7 410.4C710.1 409.8 706.1 407.1 705.4 401.9C703 384.6 693.3 371 682 358.8C650.3 325 610.5 312 564.8 315C521.7 317.8 481.7 332.4 442.2 348.4C394.9 367.4 347.8 386.8 300.7 406.1C283.2 413.3 274.8 411.3 263 396.7C254 385.7 251.4 372.8 254.2 359.5C256.133 350.233 258.5 341.233 261.3 332.5L186 359.7L226.7 521.3H214.6L209.5 526.8L198 539.4ZM438.8 434V449.2H471.9V464.9H438.8V481.2H480.9V497H418.5V418.2H480.9V434H438.8ZM512 418.2H534.5L564.3 497H542.3L537.3 482.9H509.2L504.1 497H482.2L512 418.2ZM514.2 468.3H532.2L523.2 441.8L514.2 468.3ZM637.4 497V453.1L621.6 481.3H605.9L590.1 453.1V497H569.9V418.3H591.3L613.8 459.9L636.3 418.3H657.6V497H637.4ZM263.2 368.2C263.2 369.9 262.2 372.1 265.5 372.8C272.7 374.1 279.1 374.1 285 368.6C288.8 365 293.6 362.5 298 359.7C315.3 348.8 332.8 338.1 353.1 333.6C356.7 332.8 360.5 331.1 364.1 333.7C354.9 338.2 345.6 342.4 336.8 347.7C321.8 356.6 307.1 365.9 293.3 376.7C285.6 382.8 285.5 382.7 288.4 391.6C288.8 392.7 289.2 393.9 289.2 395.1C289.3 400.1 291.8 400 295.5 398.4C320 388.2 344.6 378.1 369.1 368C410.7 350.8 452.1 333.1 495 319.5C525.4 309.9 556.3 303.9 588.4 305.9C610.7 307.3 631.7 312.7 651.5 323.6C657.4 326.9 662.1 332.3 668.9 333.9C669.367 334.233 669.8 334.6 670.2 335C671.3 335.1 672.3 335.4 672.5 336.7C686.7 348.8 698.8 362.5 707.7 379C712.1 387 716.7 388.2 726.1 385.3C731.2 383.6 733.6 380.7 731.8 375.2C730.5 371.4 729.4 367.5 728 363.7C723.4 350.7 723.8 338.4 731.1 326.3C735 319.9 735.6 312.5 735.5 305.1C735.4 295.7 733.4 286.6 731.3 277.5C723.6 244.9 706.8 218.3 679.5 198.5C641.3 170.7 597.8 160 551.4 158.8C512.8 157.9 474.9 162.6 438.5 176.2C398.7 191 362.4 211.5 330.9 240.2C302.8 265.8 284.2 297.6 271 332.8C266.8 344.2 262.8 355.8 263.2 368.2ZM670.2 335.1C671 335.633 671.767 336.167 672.5 336.7C671.767 336.167 671 335.633 670.2 335.1ZM562.9 240.4C562.8 231.4 569 225.2 578.2 225.2C586.9 225.1 593.5 231.8 593.4 240.6C593.4 248.7 586.5 255.6 578.3 255.8C570 256 563 249 562.9 240.4ZM630.1 266.9C630.1 275.4 623.2 282.6 614.9 282.7C606.6 282.8 599.5 275.7 599.5 267.2C599.5 258.4 606.1 251.8 614.9 251.9C623.4 252 630.1 258.6 630.1 266.9ZM374.7 298.7C362.8 282.4 361.8 257.8 372.7 240.8C384.1 223 405.5 213.6 425.6 217.5C464.7 225.1 481.3 268.7 457 300.4C456.3 301.4 455.8 302.4 455.1 303.4C440.7 317.6 423.5 322.4 403.7 318.7C392.3 314.5 382.1 308.8 374.7 298.7ZM380.7 268.7C380.7 273.8 385.1 278.2 391.1 278.6C394.5 278.8 398 279 401.4 278.5C406.1 277.8 407 279.8 406.8 283.9C406.6 287.5 406.6 291.2 407 294.8C407.5 300.4 411.7 303.9 417.3 303.7C422.7 303.5 426.4 300.1 426.7 294.6C427 290.9 427 287.2 426.7 283.6C426.4 279.5 427.6 277.6 432 278C435.9 278.2 439.8 278.1 443.6 277.8C448.9 277.3 452.4 273.2 452.3 267.9C452.3 262.1 448.1 258.4 441.6 258.1C437 257.9 431.3 260 428 257.3C424.4 254.4 427.2 248.5 426.6 244C426.6 243.8 426.6 243.6 426.6 243.4C426.1 236.5 422 232.3 416 232.6C410.3 232.8 406.5 237 406.2 243.6C405.9 248.2 408.2 254.1 405.3 257.1C402.1 260.4 396 257.9 391.3 258.3C385.1 258.9 380.7 263.1 380.7 268.7ZM514.9 642.2L515.1 669.5C505.3 671.3 495.567 672.2 485.9 672.2H433.9C419.5 672.2 409.3 669 403.2 662.5C397.1 656.1 394.8 646.3 396.1 633.1L402.2 572.9C403.5 560.5 407.5 551.8 414.2 546.4C420.866 541.067 431 538.4 444.6 538.4H514.4L514.6 562.5H451C443 562.5 438.8 566 438.3 573.2L434.3 633.8C434.033 636.867 434.8 639.3 436.6 641.1C438.4 642.967 440.966 643.9 444.3 643.9H476.5C480.433 643.9 484.267 643.334 488 642.2H514.9ZM232.7 640.1L228 658.4L224.6 671.6H185.1L208 593.4L163.8 642.3H133.8L122.1 593.4L93 671.6H53.5L107.6 538.4H144.5L161.2 604.7L222.1 538.4H259L232.7 640.1ZM358.8 536.7C372.4 536.7 381.9 539.3 387.4 544.7C392.9 550.1 395 559 393.6 571.4L386.5 632.1C384.8 646.3 380.2 656.9 372.5 663.6C364.7 670.3 353.1 673.7 337.7 673.7H282.7C267.3 673.7 256.9 670.3 251.6 663.6C246.2 656.9 245.3 646.3 248.7 632.1L263.3 571.4C266.3 559 271.5 550.1 278.9 544.7C286.3 539.3 296.8 536.7 310.4 536.7H358.8ZM347.1 560.7H313.4C305.5 560.7 300.8 564.2 299.3 571.4L286.8 632.1C285.2 640.2 288.6 644.3 297.2 644.3H333.6C342.2 644.3 347.1 640.2 348.3 632.1L357.4 571.4C358.5 564.2 355.1 560.7 347.1 560.7ZM564.8 671.6H525.3L522.6 538.3H557.6L560.2 586.8H611L606.1 538.3H641.1L659.1 671.6H619.6L613.7 613.4H561.6L564.8 671.6ZM805.5 632.1C809.5 646.3 809 656.9 803.9 663.6C798.767 670.333 788.5 673.7 773.1 673.7H718.2C702.8 673.7 691 670.3 683 663.6C675 656.9 670 646.3 667.8 632.1L658.4 571.4C656.5 559 658.2 550.1 663.6 544.7C668.867 539.3 678.266 536.634 691.8 536.7H740.3C753.8 536.7 764.4 539.3 772 544.7C779.7 550.1 785.2 559 788.7 571.4L805.5 632.1ZM767.3 632.1L752.6 571.4C750.8 564.2 746 560.7 738.1 560.7H704.3C696.4 560.7 693.1 564.2 694.4 571.4L705.9 632.1C707.4 640.1 712.5 644.2 721 644.2H757.4C766 644.2 769.3 640.1 767.3 632.1ZM942.8 633.3C948.1 646.4 948.8 656.2 944.7 662.5C940.5 668.967 931.233 672.2 916.9 672.2H858.5C847.833 672.2 836.967 671.267 825.9 669.4L818.1 642.6H897.4C900.667 642.6 902.966 641.733 904.3 640C905.566 638.267 905.633 635.933 904.5 633L898.3 616.2H850.2C835.6 616.2 824.1 613.2 815.6 607.1C807.3 601 801.3 591.5 797.5 578.6L795.9 573.1C792.3 560.7 792.9 551.8 797.5 546.4C802.033 541 811.1 538.3 824.7 538.3H892.8L902.3 562.5H840.5C832.567 562.433 829.767 565.967 832.1 573.1L833.2 576.8C835.6 584.1 840.9 587.8 849 587.8H885.7C899 587.8 909.8 590.6 918.3 596.2C926.9 601.9 933.8 610.9 938.8 623.5L942.8 633.3ZM410.7 433.9H387.1V496.9H366.8V433.9H343.2V418.2H410.7V433.9ZM595.7 209C595.7 200 602.1 193.5 610.8 193.5C619.5 193.6 626.3 200.3 626.3 208.8C626.2 217.3 619.1 224.2 610.6 224.1C602.3 224 595.7 217.4 595.7 209ZM280.9 736.5L462.6 818.2L254.3 762.8L237.3 695.3L246.7 675.5V697.8C246.7 704.667 248.3 710.134 251.5 714.2C256.3 720.267 265.066 723.634 277.8 724.3L280.9 736.5ZM720.6 724.3H753.9L744.2 762.7L535.9 818.1L717.6 736.5L720.6 724.3Z" fill="black"/>
</svg>
