<svg width="1001" height="1000" viewBox="0 0 1001 1000" fill="none" xmlns="http://www.w3.org/2000/svg">
<path fill-rule="evenodd" clip-rule="evenodd" d="M982.5 652.4V703.2C982.5 704.067 982.5 704.934 982.5 705.8V706L982.4 706.3V706.7C982.4 707.034 982.366 707.367 982.3 707.7C982.233 709.234 982.066 710.734 981.8 712.2C981.733 712.6 981.667 712.967 981.6 713.3C981.267 715.167 980.833 717.033 980.3 718.9C980.233 719.233 980.133 719.6 980 720C979.4 722 978.7 723.9 977.9 725.6C977.7 726 977.5 726.4 977.3 726.8C976.4 728.7 975.4 730.5 974.3 732.2C973.4 733.6 972.5 734.8 971.5 736.1C971.167 736.5 970.833 736.9 970.5 737.3C970.1 737.8 969.6 738.3 969.1 738.9C968.767 739.3 968.433 739.667 968.1 740C967 741.1 966 742 964.9 743C964.7 743.133 964.5 743.3 964.3 743.5C963.433 744.233 962.533 744.933 961.6 745.6C961.2 745.867 960.833 746.133 960.5 746.4H960.4C959.9 746.8 959.4 747.1 958.8 747.5C958.4 747.767 958 748 957.6 748.2C956.3 749 954.9 749.8 953.5 750.5C953.1 750.7 952.666 750.9 952.2 751.1C951.133 751.567 950.033 752.033 948.9 752.5C948.433 752.7 947.933 752.9 947.4 753.1C947.067 753.233 946.733 753.333 946.4 753.4C945.867 753.6 945.333 753.8 944.8 754H944.7C944.166 754.2 943.633 754.367 943.1 754.5C942.433 754.7 941.7 754.9 940.9 755.1H940.8C940.333 755.233 939.833 755.367 939.3 755.5C938.5 755.7 937.7 755.8 936.9 756C936.433 756.067 936 756.167 935.6 756.3C934.8 756.434 934 756.567 933.2 756.7H933.1L932.4 756.8L931.8 756.9C931.2 757 930.6 757 930.1 757.1H929.9H929.7C929.233 757.167 928.733 757.234 928.2 757.3C927.533 757.367 926.866 757.433 926.2 757.5H926H925.9C925.5 757.5 925.067 757.533 924.6 757.6C924 757.6 923.3 757.6 922.8 757.7H922.5H922.3C921.9 757.7 921.433 757.7 920.9 757.7C919.7 757.767 918.5 757.8 917.3 757.8H858.9C846.4 757.8 833.4 756.7 820.5 754.5L815.7 753.7L805.6 793.6L800.6 813.5L790.7 816.1L780.8 818.8L509.7 890.9L505.2 892.1L500.8 893.2L496.3 892.1L491.8 890.9L220.7 818.8L210.8 816.1L200.9 813.5L195.9 793.6L186.7 757.1H150.7V727.8H128.4L125.9 734.5L121.7 745.8L117.5 757.1H19V664.8L20.2998 661.7L21.6001 658.5L75.6997 525.3L80.1001 514.5L84.5 503.6H123L77.6997 323.5L73.3999 306.4L69.1001 289.3L86.1997 285.2L103.4 281.2L257.8 244.6C267.7 230.5 279 217.4 291.5 205.3C318 179.7 349 158.6 386.1 140.8C425.3 122.2 459.6 112 494.1 108.9C506.8 107.8 530.6 106.6 538.7 106.2C543.2 106.1 547.7 106 552.2 106C587.7 106 621.6 112.2 653.1 124.4C706.2 145.1 742.9 175.8 765.3 218.3C771.1 229.4 776 241.1 779.7 253.1L898.2 281.2L915.3 285.2L932.5 289.3L928.2 306.4L923.9 323.5L878.6 503.6H916.8L921.2 514.6L925.5 525.6L935.1 549.8L936.3 552.8L937.5 555.9V567C937.633 567.133 937.8 567.233 938 567.3C952.5 577 963.7 591.5 971.4 610.5L975.4 620.3C980.2 632 982.5 642.6 982.5 652.4ZM965.1 652.4C965.1 644.8 963.2 636.4 959.3 626.8L955.3 617C949 601.3 939.9 589.5 928.3 581.8C925.766 580.067 923.033 578.534 920.1 577.2V559.2L918.9 556.2L909.3 532L905 521H856.3L907 319.3L911.3 302.2L894.1 298.1L765.7 267.6C762.1 253.3 756.8 239.5 749.9 226.5C729.5 187.8 695.8 159.7 646.8 140.6C617.3 129.2 585.5 123.3 552.2 123.3C548 123.3 543.7 123.4 539.4 123.6C531.4 124 508 125.1 495.7 126.2C463.3 129.2 430.9 138.8 393.6 156.5C358.2 173.4 328.7 193.5 303.6 217.8C290.2 230.8 278.4 244.9 268.3 260L107.4 298.1L90.1997 302.2L94.5 319.3L145.3 521H96.1997L91.7998 531.9L37.6997 665.1L36.3999 668.2V739.8H105.4L109.6 728.4L118.8 703.6L120.4 710.4H168V739.8H200.3L212.8 789.4L215.3 799.3L225.2 802L496.3 874.1L500.8 875.2L505.2 874.1L776.4 802L786.3 799.3L788.7 789.4L801.9 737.1C802.633 736.767 803.333 736.433 804 736.1C804.267 735.967 804.533 735.867 804.8 735.8C805.8 735.267 806.766 734.7 807.7 734.1C807.9 733.967 808.167 733.8 808.5 733.6C808.7 733.467 808.9 733.367 809.1 733.3C809.3 733.167 809.5 733.033 809.7 732.9V732.8C810.233 732.467 810.733 732.134 811.2 731.8C811.266 731.734 811.333 731.667 811.4 731.6L812.6 735.6L823.4 737.4C835.4 739.4 847.3 740.4 858.9 740.4H917.3C918.366 740.4 919.4 740.4 920.4 740.4C920.8 740.333 921.133 740.3 921.4 740.3H921.7H922C922.533 740.3 923.033 740.267 923.5 740.2C923.833 740.2 924.167 740.167 924.5 740.1H924.6H924.9C925.433 740.1 925.967 740.067 926.5 740C926.9 739.933 927.267 739.9 927.6 739.9L927.8 739.8H928.1C928.567 739.734 929 739.667 929.4 739.6H930.1V739.5C930.9 739.433 931.667 739.334 932.4 739.2C932.733 739.134 933.033 739.067 933.3 739H933.4C934 738.8 934.7 738.7 935.4 738.6C935.733 738.467 936.067 738.367 936.4 738.3H936.5L936.6 738.2C937.2 738.067 937.766 737.934 938.3 737.8C938.633 737.667 938.966 737.567 939.3 737.5L939.5 737.4C939.967 737.267 940.4 737.133 940.8 737C941 736.933 941.2 736.867 941.4 736.8C941.8 736.667 942.1 736.533 942.3 736.4C943.233 736.067 944.133 735.7 945 735.3C945.267 735.167 945.533 735.033 945.8 734.9C946.8 734.433 947.8 733.9 948.8 733.3C949 733.167 949.2 733 949.4 732.8C949.8 732.6 950.167 732.367 950.5 732.1H950.6C950.8 731.9 951.033 731.7 951.3 731.5C951.966 731.033 952.6 730.567 953.2 730.1C953.333 729.967 953.433 729.867 953.5 729.8C954.233 729.2 954.933 728.534 955.6 727.8C955.867 727.6 956.1 727.367 956.3 727.1C956.633 726.767 956.933 726.433 957.2 726.1C957.4 725.833 957.6 725.6 957.8 725.4C958.466 724.533 959.1 723.667 959.7 722.8C960.4 721.7 961 720.5 961.7 719.2C961.766 718.934 961.867 718.7 962 718.5C962.533 717.3 963 716.067 963.4 714.8C963.467 714.534 963.533 714.3 963.6 714.1C964 712.833 964.3 711.567 964.5 710.3C964.567 710.034 964.6 709.8 964.6 709.6C964.8 708.467 964.933 707.367 965 706.3C965 706.1 965 705.9 965 705.7L965.1 705.3C965.1 704.567 965.1 703.867 965.1 703.2V652.4ZM198.4 539.4L147.2 335.9L272 306.3C283.9 280.5 300.4 257.1 321.7 236.5C346.1 212.9 374.3 194.6 404.8 180C434.5 165.9 465.2 155.1 498 152.1C508.6 151.2 529.9 150.1 540.5 149.6C573.7 148.2 606.2 152.8 637.3 164.9C675.1 179.6 707.3 201.6 726.8 238.6C737.8 259.4 743.8 281.9 745.1 305.5C745.167 307.167 745.133 308.833 745 310.5L851.9 335.9L804.7 523.6C796.9 525.7 790.8 529.1 786.2 534C784.866 532.867 783.5 531.8 782.1 530.8C778.833 528.467 775.2 526.5 771.2 524.9L812.7 359.7L738 332.7C733.5 341.7 733.9 351.1 736.9 360.6C740.2 371 742.8 381.6 746.9 391.8C749.7 398.9 747 404.7 740.2 407.8C732.1 411.5 723.6 411.5 715.1 410.4C710.6 409.8 706.6 407.1 705.9 401.9C703.5 384.6 693.8 371 682.4 358.8C650.7 325 610.9 312 565.3 315C522.2 317.8 482.2 332.4 442.6 348.4C395.3 367.4 348.2 386.8 301.1 406.1C283.7 413.3 275.3 411.3 263.4 396.7C254.5 385.7 251.8 372.8 254.6 359.5C256.533 350.233 258.933 341.233 261.8 332.5L186.5 359.7L227.1 521.3H215L209.9 526.8L198.4 539.4ZM439.2 434V449.2H472.4V464.9H439.2V481.2H481.4V497H418.9V418.2H481.4V434H439.2ZM512.3 418.2H534.8L564.6 497H542.7L537.6 482.9H509.5L504.4 497H482.5L512.3 418.2ZM514.5 468.3H532.5L523.5 441.8L514.5 468.3ZM637.7 497V453.1L622 481.3H606.2L590.5 453.1V497H570.2V418.3H591.6L614.1 459.9L636.6 418.3H658V497H637.7ZM263.4 368.2C263.4 369.9 262.5 372.1 265.8 372.8C273 374.1 279.4 374.1 285.2 368.6C289 365 293.8 362.5 298.3 359.7C315.6 348.8 333 338.1 353.3 333.6C356.9 332.8 360.7 331.1 364.3 333.7C355.1 338.2 345.8 342.4 337 347.7C322 356.6 307.3 365.9 293.5 376.7C285.8 382.8 285.8 382.7 288.6 391.6C289 392.7 289.5 393.9 289.5 395.1C289.5 400.1 292 400 295.8 398.4C320.3 388.2 344.8 378.1 369.3 368C410.9 350.8 452.3 333.1 495.3 319.5C525.6 309.9 556.6 303.9 588.6 305.9C610.9 307.3 632 312.7 651.8 323.6C657.7 326.9 662.3 332.3 669.2 333.9C669.6 334.233 670 334.6 670.4 335C671.6 335.1 672.5 335.4 672.8 336.7C672 336.167 671.233 335.633 670.5 335.1C671.233 335.633 672 336.167 672.8 336.7C686.9 348.8 699 362.5 708 379C712.3 387 716.9 388.2 726.3 385.3C731.4 383.6 733.9 380.7 732 375.2C730.7 371.4 729.6 367.5 728.3 363.7C723.6 350.7 724 338.4 731.4 326.3C735.2 319.9 735.8 312.5 735.8 305.1C735.7 295.7 733.7 286.6 731.5 277.5C723.8 244.9 707 218.3 679.8 198.5C641.5 170.7 598 160 551.7 158.8C513 157.9 475.2 162.6 438.7 176.2C399 191 362.7 211.5 331.2 240.2C303.1 265.8 284.5 297.6 271.3 332.8C267 344.2 263.1 355.8 263.4 368.2ZM563.2 240.4C563.1 231.4 569.3 225.2 578.4 225.2C587.1 225.1 593.7 231.8 593.7 240.6C593.6 248.7 586.8 255.6 578.6 255.8C570.3 256 563.2 249 563.2 240.4ZM630.3 266.9C630.3 275.4 623.5 282.6 615.2 282.7C606.8 282.8 599.7 275.7 599.8 267.2C599.8 258.4 606.4 251.8 615.2 251.9C623.6 252 630.3 258.6 630.3 266.9ZM374.9 298.7C363 282.4 362.1 257.8 372.9 240.8C384.3 223 405.7 213.6 425.8 217.5C465 225.1 481.5 268.7 457.3 300.4C456.6 301.4 456 302.4 455.4 303.4C440.9 317.6 423.7 322.4 403.9 318.7C392.5 314.5 382.3 308.8 374.9 298.7ZM380.9 268.7C380.9 273.8 385.3 278.2 391.3 278.6C394.7 278.8 398.3 279 401.6 278.5C406.3 277.8 407.2 279.8 407 283.9C406.8 287.5 406.9 291.2 407.2 294.8C407.7 300.4 411.9 303.9 417.5 303.7C423 303.5 426.6 300.1 427 294.6C427.2 290.9 427.2 287.2 427 283.6C426.6 279.5 427.9 277.6 432.3 278C436.1 278.2 440 278.1 443.8 277.8C449.1 277.3 452.6 273.2 452.6 267.9C452.5 262.1 448.4 258.4 441.8 258.1C437.2 257.9 431.5 260 428.2 257.3C424.7 254.4 427.5 248.5 426.9 244C426.9 243.8 426.9 243.6 426.9 243.4C426.3 236.5 422.2 232.3 416.2 232.6C410.5 232.8 406.8 237 406.4 243.6C406.1 248.2 408.4 254.1 405.5 257.1C402.4 260.4 396.3 257.9 391.5 258.3C385.3 258.9 380.9 263.1 380.9 268.7ZM515.2 642.2L515.3 669.5C505.5 671.3 495.767 672.2 486.1 672.2H434.1C419.8 672.2 409.5 669 403.4 662.5C397.4 656.1 395 646.3 396.4 633.1L402.5 572.9C403.7 560.5 407.7 551.8 414.5 546.4C421.1 541.067 431.2 538.4 444.8 538.4H514.7L514.8 562.5H451.2C443.3 562.5 439.1 566 438.6 573.2L434.5 633.8C434.3 636.867 435.1 639.3 436.9 641.1C438.7 642.967 441.233 643.9 444.5 643.9H476.8C480.666 643.9 484.466 643.334 488.2 642.2H515.2ZM565.2 671.6H525.7L523 538.4H558L560.6 586.9H611.5L606.5 538.4H641.5L659.5 671.6H620L614.1 613.4H562L565.2 671.6ZM943.3 633.4C948.6 646.4 949.2 656.2 945.1 662.6C940.967 669 931.733 672.2 917.4 672.2H859C848.267 672.2 837.366 671.267 826.3 669.4L818.5 642.7H897.9C901.167 642.7 903.433 641.833 904.7 640.1C905.966 638.367 906.067 636.033 905 633.1L898.7 616.3H850.7C836.1 616.3 824.5 613.2 816.1 607.1C807.7 601.1 801.7 591.5 798 578.6L796.4 573.2C792.8 560.8 793.3 551.9 797.9 546.4C802.433 541.067 811.5 538.4 825.1 538.4H893.2L902.8 562.5H841C833 562.5 830.167 566.067 832.5 573.2L833.7 576.8C836.1 584.1 841.3 587.8 849.5 587.8H886.1C899.4 587.8 910.3 590.6 918.8 596.3C927.4 602 934.2 611 939.3 623.5L943.3 633.4ZM233.1 640.2L228.4 658.5L225 671.7H185.5L208.4 593.5L164.2 642.3H134.2L122.5 593.5L93.3999 671.7H53.8999L108 538.5H144.9L161.7 604.8L222.5 538.5H259.4L233.1 640.2ZM805.9 632.2C809.9 646.4 809.4 657 804.3 663.6C799.166 670.4 788.9 673.8 773.5 673.8H718.6C703.2 673.8 691.4 670.4 683.4 663.6C675.4 657 670.4 646.4 668.2 632.2L658.8 571.5C656.9 559.1 658.6 550.2 664 544.8C669.267 539.4 678.666 536.733 692.2 536.8H740.7C754.3 536.8 764.8 539.4 772.4 544.8C780.1 550.2 785.6 559.1 789.1 571.5L805.9 632.2ZM767.7 632.2L753 571.4C751.2 564.3 746.4 560.8 738.5 560.8H704.7C696.8 560.8 693.5 564.3 694.9 571.4L706.3 632.2C707.8 640.2 712.9 644.3 721.4 644.3H757.9C766.4 644.3 769.7 640.2 767.7 632.2ZM359.2 536.7C372.8 536.7 382.3 539.4 387.8 544.8C393.3 550.2 395.4 559 393.9 571.4L386.9 632.2C385.2 646.4 380.5 657 372.8 663.6C365.1 670.4 353.4 673.8 338 673.8H283.1C267.7 673.8 257.3 670.4 251.9 663.6C246.6 657 245.7 646.4 249.1 632.2L263.6 571.4C266.6 559 271.9 550.2 279.3 544.8C286.7 539.4 297.2 536.7 310.7 536.7H359.2ZM347.6 560.8H313.9C305.9 560.8 301.2 564.3 299.8 571.4L287.3 632.2C285.6 640.2 289.1 644.3 297.6 644.3H334.1C342.6 644.3 347.5 640.2 348.7 632.2L357.9 571.4C359 564.3 355.5 560.8 347.6 560.8ZM411.1 434H387.5V497H367.3V434H343.6V418.3H411.1V434ZM596.2 209.1C596.2 200.1 602.5 193.6 611.2 193.6C619.9 193.7 626.8 200.4 626.7 208.9C626.6 217.4 619.5 224.3 611.1 224.2C602.8 224.1 596.2 217.5 596.2 209.1ZM281.3 736.6L463 818.3L254.7 762.9L237.7 695.4L247.1 675.6V697.9C247.1 704.767 248.733 710.234 252 714.3C256.733 720.367 265.5 723.733 278.3 724.4L281.3 736.6ZM721 724.4H754.2L744.5 762.8L536.2 818.2L717.9 736.6L721 724.4Z" fill="white"/>
</svg>
