<svg width="644" height="130" viewBox="0 0 644 130" fill="none" xmlns="http://www.w3.org/2000/svg">
<g clip-path="url(#clip0_26_2)">
<path d="M214.842 47.3677C221.832 47.3677 227.466 49.3516 231.534 53.4196C235.604 57.5937 237.69 63.6436 237.69 71.7816V103.707H224.647V73.4512C224.647 68.5484 223.606 64.8968 221.414 62.3924C219.224 59.992 216.199 58.7388 212.129 58.7388C207.749 58.7388 204.199 60.2022 201.591 63.019C198.984 65.9399 197.627 70.112 197.627 75.4332V103.707H184.584V73.4512C184.584 68.5484 183.543 64.8968 181.351 62.3924C179.161 59.992 176.134 58.7388 172.066 58.7388C167.579 58.7388 164.136 60.2022 161.527 63.019C158.921 65.8358 157.564 70.0079 157.564 75.4332V103.707H144.521V47.9943H156.937V55.0892C159.025 52.5848 161.632 50.7089 164.763 49.3516C167.892 47.9962 171.335 47.3677 175.195 47.3677C179.369 47.3677 183.125 48.0984 186.36 49.6639C189.593 51.3335 192.097 53.6278 193.975 56.6548C196.271 53.7319 199.192 51.4377 202.844 49.768C206.495 48.2025 210.459 47.3677 214.842 47.3677ZM279.631 104.438C273.998 104.438 268.887 103.186 264.4 100.786C259.983 98.4538 256.327 94.9061 253.862 90.562C251.253 86.2838 250.002 81.381 250.002 75.8496C250.002 70.3221 251.253 65.4193 253.862 61.1411C256.361 56.8495 260.011 53.3432 264.4 51.0193C268.887 48.6209 273.998 47.3677 279.631 47.3677C285.371 47.3677 290.482 48.6209 294.968 51.0212C299.455 53.4196 303.002 56.863 305.611 61.1411C308.115 65.4174 309.366 70.3221 309.366 75.8516C309.366 81.381 308.115 86.2838 305.611 90.562C303.002 94.9423 299.455 98.3857 294.968 100.786C290.482 103.186 285.371 104.44 279.631 104.44V104.438ZM279.631 93.2746C284.432 93.2746 288.396 91.7091 291.525 88.4759C294.656 85.2408 296.219 81.0667 296.219 75.8516C296.219 70.6345 294.656 66.4624 291.525 63.2272C288.396 59.992 284.432 58.4285 279.631 58.4285C274.832 58.4285 270.869 59.992 267.842 63.2272C264.712 66.4604 263.147 70.6345 263.147 75.8516C263.147 81.0667 264.712 85.2408 267.842 88.4759C270.867 91.7091 274.834 93.2746 279.631 93.2746ZM376.14 26.293V103.707H363.619V96.5078C361.483 99.0887 358.765 101.127 355.69 102.456C352.456 103.811 349.011 104.44 345.151 104.44C339.832 104.44 335.031 103.29 330.753 100.89C326.477 98.4917 323.034 95.1525 320.633 90.7702C318.235 86.492 316.982 81.4851 316.982 75.8516C316.982 70.218 318.235 65.2091 320.635 60.931C323.034 56.6547 326.477 53.3155 330.755 50.9152C335.031 48.5168 339.83 47.3677 345.153 47.3677C348.805 47.3677 352.246 47.9962 355.273 49.2455C358.285 50.4882 360.964 52.4181 363.097 54.881V26.293H376.14ZM346.717 93.2746C349.848 93.2746 352.665 92.5439 355.169 91.0825C357.672 89.7272 359.654 87.6411 361.115 85.0326C362.576 82.424 363.305 79.2949 363.305 75.8516C363.305 72.4082 362.576 69.2791 361.115 66.6706C359.654 64.062 357.672 61.976 355.169 60.5145C352.665 59.1592 349.846 58.4285 346.717 58.4285C343.588 58.4285 340.771 59.1572 338.267 60.5145C335.762 61.974 333.78 64.062 332.319 66.6706C330.859 69.2791 330.129 72.4062 330.129 75.8516C330.129 79.2949 330.859 82.424 332.319 85.0326C333.78 87.6411 335.762 89.7272 338.267 91.0825C340.771 92.5439 343.588 93.2746 346.717 93.2746ZM405.352 56.1323C409.108 50.2905 415.68 47.3677 425.176 47.3677V59.7838C424.179 59.5865 423.167 59.4813 422.151 59.4695C417.038 59.4695 413.072 60.931 410.255 63.8538C407.438 66.8788 405.977 71.157 405.977 76.6864V103.707H392.936V47.9943H405.35V56.1323H405.352ZM435.922 47.9943H448.963V103.707H435.92V47.9943H435.922ZM442.495 38.8133C440.094 38.8133 438.112 38.0826 436.547 36.519C435.778 35.8194 435.167 34.9646 434.753 34.011C434.34 33.0574 434.134 32.0269 434.149 30.9876C434.149 28.7975 434.983 26.9196 436.547 25.3541C438.112 23.8946 440.094 23.1639 442.495 23.1639C444.893 23.1639 446.875 23.8946 448.441 25.25C450.006 26.7114 450.841 28.4851 450.841 30.6753C450.841 32.9715 450.11 34.8494 448.545 36.4129C446.981 37.9785 444.893 38.8133 442.495 38.8133ZM497.373 47.3677C504.363 47.3677 509.997 49.4557 514.275 53.5237C518.553 57.5937 520.639 63.7477 520.639 71.7816V103.707H507.597V73.4512C507.597 68.5484 506.449 64.8968 504.155 62.3924C501.859 59.992 498.626 58.7388 494.348 58.7388C489.549 58.7388 485.793 60.2022 482.974 63.019C480.158 65.9399 478.802 70.112 478.802 75.5373V103.707H465.76V47.9943H478.176V55.1933C480.368 52.5848 483.08 50.7069 486.314 49.3516C489.549 47.9962 493.305 47.3677 497.373 47.3677ZM570.406 100.682C568.773 101.987 566.892 102.945 564.877 103.499C562.6 104.132 560.247 104.448 557.884 104.438C551.73 104.438 547.035 102.872 543.696 99.6389C540.357 96.4037 538.687 91.8132 538.687 85.6592V58.8449H529.508V48.4127H538.689V35.6842H551.732V48.4127H566.65V58.8449H551.73V85.3449C551.73 88.0575 552.356 90.1436 553.714 91.5009C555.069 92.9623 556.947 93.6911 559.449 93.6911C562.372 93.6911 564.773 92.9623 566.754 91.3968L570.406 100.682ZM612.451 47.3677C619.442 47.3677 625.076 49.4557 629.354 53.5237C633.63 57.5937 635.718 63.7477 635.718 71.7816V103.707H622.675V73.4512C622.675 68.5484 621.528 64.8968 619.232 62.3924C616.938 59.992 613.703 58.7388 609.426 58.7388C604.626 58.7388 600.87 60.2022 598.053 63.019C595.236 65.9399 593.881 70.112 593.881 75.5373V103.707H580.838V26.295H593.881V54.4626C596.071 52.1684 598.68 50.3946 601.915 49.1414C605.044 47.9943 608.591 47.3677 612.451 47.3677Z" fill="#ECF9FB"/>
<path fill-rule="evenodd" clip-rule="evenodd" d="M13.6964 90.3637L50.664 68.1773L47.2953 59.2437L57.8532 48.399L71.1965 45.5233L75.0602 50.2788L68.9081 56.5095L63.5457 58.1988L59.7114 62.1371L61.5893 67.3621L65.3999 71.4085L70.7742 69.9785L74.5986 65.7789L82.9487 63.133L85.4375 68.7312L76.8202 79.295L62.3828 83.8659L55.9066 76.657L18.8153 98.9161C17.0553 96.6513 15.0066 93.4437 13.6964 90.3637ZM120.362 45.1364L90.9964 53.0563C92.6149 57.362 93.1472 59.892 93.5951 62.6812L122.908 54.7731C122.44 51.642 121.602 48.454 120.362 45.1364Z" fill="#1BD96A"/>
<path fill-rule="evenodd" clip-rule="evenodd" d="M18.0728 69.0965C20.1529 93.6499 40.768 112.959 65.8576 112.959C84.8148 112.959 101.218 101.935 108.999 85.9578L118.547 89.2637C109.358 109.17 89.2108 123 65.8576 123C35.2248 123 10.1037 99.1989 8 69.0965H18.0728ZM8.15321 59.1003C11.1153 29.8563 35.8396 7 65.8596 7C97.8713 7 123.861 32.9893 123.861 65.001C123.861 70.1356 123.193 75.115 121.936 79.8568L112.413 76.5607C113.348 72.7788 113.82 68.897 113.817 65.001C113.817 38.5324 92.3281 17.0433 65.8596 17.0433C41.3887 17.0433 21.1744 35.4092 18.2614 59.1003H8.15714H8.15321Z" fill="#1BD96A"/>
<path fill-rule="evenodd" clip-rule="evenodd" d="M65.7044 37.0868C50.2869 37.1005 37.7725 49.6247 37.7725 65.0462C37.7725 80.4775 50.3026 93.0056 65.7339 93.0056C66.5157 93.0056 67.2916 92.9742 68.0576 92.9094L70.8508 102.684C69.1547 102.912 67.4453 103.026 65.7339 103.025C44.7712 103.025 27.7527 86.0069 27.7527 65.0462C27.7527 44.0835 44.7712 27.067 65.7339 27.067C66.2525 27.067 66.771 27.0768 67.2857 27.0984L65.7044 37.0868ZM77.1365 28.8113C92.5344 33.6571 103.713 48.0572 103.713 65.0462C103.713 80.7741 94.1333 94.2804 80.4954 100.046L77.712 90.3126C87.1562 85.8243 93.6933 76.1915 93.6933 65.0462C93.6933 53.0661 86.1427 42.8362 75.5454 38.8585L77.1365 28.8113Z" fill="#1BD96A"/>
</g>
<defs>
<clipPath id="clip0_26_2">
<rect width="644" height="130" fill="white"/>
</clipPath>
</defs>
</svg>
