<svg width="512" height="512" viewBox="0 0 512 512" fill="none" xmlns="http://www.w3.org/2000/svg">
<path d="M152.517 253.436C148.061 249.06 142.013 249.314 136.778 253.988C135.54 255.101 134.409 256.493 133.285 257.877L133.282 257.88C131.001 260.688 128.747 263.461 125.682 263.796C122.468 264.067 120.386 261.365 118.253 258.597L118.25 258.593L118.248 258.591C117.087 257.084 115.911 255.558 114.528 254.482C114.374 254.429 114.29 254.309 114.205 254.188L114.203 254.186C114.161 254.126 114.119 254.065 114.068 254.013C108.377 249.161 102.021 249.103 97.5608 253.784C93.334 258.236 93.6657 264.354 98.3439 269.738C99.4655 271.039 100.929 272.217 102.376 273.382C105.185 275.643 107.933 277.856 108.009 280.819C107.979 284.058 105.143 286.311 102.264 288.599L102.262 288.6C100.736 289.812 99.1984 291.034 98.0583 292.418C93.6719 297.487 93.4557 304.142 97.6793 308.438C101.595 312.422 108.339 312.407 113.26 308.194C116.15 305.821 118.964 303.214 121.161 300.293C124.221 296.218 126.461 297.09 129.376 300.368C131.984 303.334 134.903 306.147 137.903 308.729C142.517 312.642 148.49 312.155 152.638 307.78C156.708 303.482 156.912 298.065 153.002 293.462C150.394 290.497 147.629 287.685 144.63 285.103C141.247 282.13 140.803 279.804 144.475 276.663C147.678 273.983 150.574 270.836 153.238 267.764C157.076 263.386 156.586 257.576 152.517 253.436Z" fill="#F7CB05"/>
<path fill-rule="evenodd" clip-rule="evenodd" d="M129.764 94.7142C154.131 68.1441 182.858 46.5978 216.055 31.9731C256.63 14.2224 298.546 6.29625 342.027 19.8046C366.618 27.396 388.526 40.1228 407.752 57.3152C414.57 63.9019 420.047 71.1584 422.283 80.5361C425.189 92.8164 433.349 100.52 443.967 105.99C447.644 107.884 451.254 109.872 454.857 111.856L454.859 111.857L454.861 111.858C461.663 115.604 468.441 119.336 475.6 122.401C483.313 125.638 485.66 132.225 482.865 139.928C479.4 148.971 472.806 155.558 465.54 161.251C461.516 164.154 456.375 165.27 451.792 161.809C436.59 150.199 418.594 147.185 400.486 146.738C350.075 145.064 309.165 165.605 276.303 203.116C245.341 238.505 225.78 280.593 207.449 323.24C192.12 359.382 176.96 395.581 161.809 431.756L161.8 431.777C155.52 446.772 149.241 461.762 142.953 476.743C135.017 495.61 126.969 500.746 106.626 498.513C91.2009 496.95 79.2409 489.024 71.0812 476.632C42.1311 432.311 27.0412 383.525 28.0472 330.273C28.6061 293.32 36.2069 257.596 48.5023 222.764C60.5742 189.049 75.8876 157.009 98.9136 129.546C106.291 120.615 121.828 103.31 129.764 94.7142ZM371.089 137.472C371.721 138.103 372.254 138.041 372.874 137.471H372.871C372.241 138.028 371.615 137.998 371.089 137.472ZM371.229 137.471C371.182 137.472 371.135 137.472 371.089 137.472L371.229 137.471ZM135.8 372.249C136.731 371.906 137.597 371.542 138.362 371.043C137.597 371.542 136.73 371.906 135.799 372.248C131.881 372.885 130.117 375.821 128.388 378.699L128.388 378.7C127.996 379.353 127.605 380.002 127.192 380.621C115.008 399.712 109.867 421.37 104.948 443.028C104.6 444.643 104.206 446.249 103.813 447.851C102.821 451.896 101.835 455.918 101.595 459.997C101.483 468.816 96.5653 473.728 89.8587 478.194C89.2027 478.655 88.6471 478.9 88.1653 478.987C88.6473 478.901 89.2033 478.656 89.8598 478.195C96.5664 473.729 101.484 468.817 101.596 459.997C101.836 455.919 102.822 451.898 103.814 447.852C104.207 446.25 104.601 444.644 104.95 443.028C109.868 421.37 115.009 399.712 127.193 380.622C127.607 380.003 127.997 379.353 128.389 378.7C130.118 375.822 131.882 372.886 135.8 372.249ZM376.007 137.026L376.006 137.025C396.238 135.35 416.134 136.69 435.695 142.383C445.307 145.286 449.779 142.607 454.809 133.117C455.437 131.914 455.901 130.766 456.168 129.678C455.901 130.766 455.438 131.915 454.81 133.118C449.78 142.607 445.309 145.287 435.696 142.384C416.135 136.69 396.239 135.351 376.007 137.026ZM374.18 136.687C373.791 136.825 373.409 137.071 373.027 137.358L373.025 137.358C373.407 137.07 373.79 136.825 374.18 136.687ZM413.229 83.7738C413.818 86.2358 414.558 88.5587 415.444 90.7505C414.557 88.5585 413.817 86.2355 413.228 83.7731C411.216 75.9583 406.074 69.7064 400.262 64.1245L400.263 64.1252C406.075 69.7071 411.217 75.959 413.229 83.7738ZM218.882 99.2193C212.048 92.267 211.984 82.3577 218.787 75.8399C225.513 69.244 235.976 69.2624 242.348 75.9008C248.721 82.5391 248.544 93.2978 241.898 99.6622C235.408 105.873 225.256 105.703 218.882 99.2193ZM181.737 278.785C181.303 300.689 171.615 317.553 153.523 329.619C141.536 335.083 129.26 338.376 115.871 336.164C94.2794 332.637 74.9155 314.346 70.3828 293.016C65.7059 270.601 75.0666 247.153 93.549 234.859C129.576 211.036 175.499 232.126 180.841 275.061C180.937 275.889 181.171 276.717 181.405 277.546C181.521 277.959 181.637 278.372 181.737 278.785ZM240.887 125.354C234.284 118.481 224.055 118.388 217.483 124.985C210.366 131.964 210.279 141.408 217.192 148.283C223.719 154.923 234.569 155.022 240.753 148.499C246.934 142.13 247.03 131.603 240.887 125.354ZM266.147 117.766C272.794 111.402 283.023 111.496 289.243 117.823C295.771 124.463 295.828 135.146 289.568 141.592C283.153 148.035 272.227 147.858 265.854 141.22C259.174 134.424 259.266 124.361 266.147 117.766Z" fill="#F7CB05"/>
<path d="M57.4999 134.553C58.6869 136.856 58.7703 138.496 58.3197 141.776C57.2205 149.791 58.6702 155.574 62.9176 160.116C63.2117 160.431 63.4814 160.724 63.7278 161C67.1529 155.013 71.389 148.244 76.4625 141.112C80.0083 136.127 83.2594 131.749 86.1801 127.951L84.0818 127.22C82.0052 126.497 77.8922 126.177 74.9425 126.51C74.7661 126.529 74.5947 126.549 74.4279 126.568C71.0217 126.956 69.5668 127.122 67.7858 125.102C61.4019 116.076 57.7225 106.78 55.6952 95.7083C52.9267 80.5881 56.1457 61.4238 63.0129 52.1415C65.6652 48.5565 64.9908 44.4113 61.3126 41.6902C56.1803 37.8932 51.4581 41.9947 46.2323 54.789C35.6032 80.8132 39.6864 108.99 57.4999 134.553Z" fill="#F5CBFC"/>
</svg>
