<svg width="1100" height="525" viewBox="0 0 1100 525" fill="none" xmlns="http://www.w3.org/2000/svg">
<path fill-rule="evenodd" clip-rule="evenodd" d="M833.037 274.567C840.068 267.522 851.055 264 866.216 264H917.194C932.136 264 943.342 267.522 950.373 274.567C957.404 281.612 960.92 292.839 960.92 307.809V373.191C960.92 388.381 957.404 399.609 950.373 406.433C943.342 413.478 932.136 417 917.194 417H866.216C851.055 417 840.068 413.478 833.037 406.433C826.006 399.609 822.49 388.381 822.49 373.191V307.809C822.49 292.839 826.006 281.612 833.037 274.567ZM864.459 307.809V373.411C864.459 380.016 867.315 382.657 873.907 382.657H908.405C914.997 382.657 917.853 380.016 917.853 373.411V307.809C917.853 301.424 914.997 298.562 908.405 298.562H873.907C867.315 298.562 864.459 301.424 864.459 307.809Z" fill="#F5CBFC"/>
<path fill-rule="evenodd" clip-rule="evenodd" d="M408.297 274.567C415.329 267.522 426.534 264 441.477 264H492.674C507.616 264 518.821 267.522 525.853 274.567C532.884 281.612 536.4 292.839 536.4 307.809V373.191C536.4 388.381 532.884 399.609 525.853 406.433C518.821 413.478 507.616 417 492.674 417H441.477C426.534 417 415.329 413.478 408.297 406.433C401.485 399.609 397.75 388.381 397.75 373.191V307.809C397.75 292.839 401.485 281.612 408.297 274.567ZM440.158 307.809V373.191C440.158 379.796 443.014 382.657 449.606 382.657H484.324C490.916 382.657 493.552 379.796 493.552 373.191V307.809C493.552 301.204 490.916 298.562 484.324 298.562H449.606C443.014 298.562 440.158 301.204 440.158 307.809Z" fill="#F5CBFC"/>
<path d="M979.817 276.548C986.849 269.724 998.055 265.981 1013 265.981H1084.85C1086.39 265.981 1087.7 267.302 1087.7 269.063V297.682C1087.7 299.223 1086.39 300.544 1084.85 300.544H1021.35C1014.75 300.544 1011.9 303.406 1011.9 309.79V313.973C1011.9 320.577 1014.75 323.439 1021.35 323.439H1058.04C1072.1 323.439 1082.65 326.741 1089.46 333.345C1096.27 340.17 1099.79 350.517 1099.79 364.386V374.512C1099.79 388.381 1096.27 398.948 1089.46 405.552C1082.65 412.377 1072.1 415.679 1058.04 415.679H1003.77C993.66 415.679 983.553 414.798 973.665 413.037C972.127 412.817 971.247 411.496 971.247 410.175V383.978C971.247 382.437 972.566 381.116 974.104 381.116H1049.91C1052.25 381.116 1054.09 380.456 1055.4 379.135C1056.58 378.108 1057.16 376.493 1057.16 374.292V359.763H1013C998.055 359.763 986.849 356.24 979.817 349.196C973.005 342.151 969.27 331.144 969.27 315.954V309.79C969.27 294.82 973.005 283.593 979.817 276.548Z" fill="#F5CBFC"/>
<path d="M764.92 322.338V269.063C764.92 267.302 766.238 265.981 767.996 265.981H804.691C806.23 265.981 807.548 267.302 807.548 269.063V412.157C807.548 413.698 806.23 415.019 804.691 415.019H767.996C766.238 415.019 764.92 413.698 764.92 412.157V356.681H719.656V412.157C719.656 413.698 718.557 415.019 716.799 415.019H680.104C678.566 415.019 677.247 413.698 677.247 412.157V269.063C677.247 267.302 678.566 265.981 680.104 265.981H716.799C718.557 265.981 719.656 267.302 719.656 269.063V322.338H764.92Z" fill="#F5CBFC"/>
<path d="M557.055 276.548C564.086 269.503 575.293 265.981 590.234 265.981H663.844C665.382 265.981 666.701 267.302 666.701 269.063V297.682C666.701 299.223 665.382 300.544 663.844 300.544H598.584C591.992 300.544 589.136 303.406 589.136 309.79V374.952C589.136 377.301 589.795 379.135 591.113 380.456C592.285 381.63 594.043 382.217 596.387 382.217H627.149C630.665 382.217 634.034 381.704 637.257 380.676C637.549 380.53 637.843 380.456 638.136 380.456H663.844C665.382 380.456 666.701 381.777 666.701 383.318V410.175C666.701 411.496 665.822 412.817 664.284 413.037C655.055 414.798 645.826 415.679 636.597 415.679H588.256C574.194 415.679 563.647 412.157 556.835 405.552C550.024 398.728 546.508 388.161 546.508 374.292V309.57C546.508 294.6 550.243 283.373 557.055 276.548Z" fill="#F5CBFC"/>
<path d="M338.642 267.522C339.082 266.642 339.961 265.981 341.059 265.981H379.952C381.49 265.981 382.808 267.302 382.808 269.063V412.157C382.808 413.698 381.49 415.019 379.952 415.019H343.257C341.499 415.019 340.181 413.698 340.181 412.157V343.472L317.109 384.859C316.669 385.96 315.57 386.4 314.692 386.4H285.907C285.028 386.4 283.929 385.96 283.49 384.859L260.419 343.472V412.157C260.419 413.698 259.1 415.019 257.342 415.019H220.647C219.109 415.019 217.79 413.698 217.79 412.157V269.063C217.79 267.302 219.109 265.981 220.647 265.981H259.539C260.419 265.981 261.517 266.642 261.956 267.522L300.189 338.629L338.642 267.522Z" fill="#F5CBFC"/>
<path d="M679.992 511.783C677.997 509.332 677 507.148 677 505.232C677 503.24 678.649 500.635 681.948 497.417C683.866 495.579 685.898 494.659 688.046 494.659C690.194 494.659 693.186 496.575 697.021 500.406C698.095 501.708 699.63 502.972 701.624 504.198C703.618 505.347 705.459 505.922 707.147 505.922C714.281 505.922 717.848 503.011 717.848 497.188C717.848 495.425 716.851 493.97 714.857 492.82C712.939 491.594 710.522 490.713 707.607 490.177C704.692 489.641 701.547 488.798 698.172 487.649C694.797 486.423 691.652 485.005 688.737 483.396C685.822 481.787 683.367 479.259 681.372 475.811C679.455 472.287 678.496 468.073 678.496 463.169C678.496 456.427 680.989 450.565 685.975 445.585C691.038 440.528 697.904 438 706.572 438C711.174 438 715.355 438.613 719.114 439.839C722.949 440.988 725.596 442.176 727.053 443.402L729.93 445.585C732.308 447.807 733.497 449.684 733.497 451.217C733.497 452.749 732.577 454.856 730.736 457.538C728.127 461.369 725.443 463.284 722.681 463.284C721.07 463.284 719.076 462.518 716.698 460.985C716.467 460.832 716.007 460.449 715.317 459.836C714.703 459.223 714.128 458.725 713.591 458.342C711.98 457.346 709.909 456.848 707.377 456.848C704.923 456.848 702.851 457.461 701.164 458.687C699.553 459.836 698.747 461.483 698.747 463.629C698.747 465.697 699.706 467.383 701.624 468.686C703.618 469.988 706.073 470.869 708.988 471.329C711.903 471.789 715.087 472.517 718.539 473.513C721.991 474.432 725.174 475.581 728.089 476.96C731.004 478.34 733.42 480.753 735.338 484.201C737.333 487.572 738.33 491.748 738.33 496.728C738.33 501.708 737.333 506.114 735.338 509.945C733.344 513.699 730.736 516.61 727.514 518.679C721.3 522.74 714.665 524.77 707.607 524.77C704.002 524.77 700.588 524.349 697.367 523.506C694.145 522.587 691.537 521.476 689.542 520.173C685.476 517.721 682.638 515.346 681.027 513.048L679.992 511.783Z" fill="#F5CBFC"/>
<path d="M745.602 439.264H809.579C812.033 439.264 813.836 439.571 814.987 440.184C816.137 440.72 816.904 441.601 817.288 442.827C817.672 444.053 817.863 445.662 817.863 447.654C817.863 449.646 817.672 451.255 817.288 452.481C816.904 453.63 816.252 454.435 815.332 454.894C813.951 455.584 811.995 455.929 809.464 455.929H787.486V513.737C787.486 515.499 787.409 516.802 787.256 517.645C787.179 518.487 786.834 519.483 786.22 520.633C785.683 521.705 784.686 522.472 783.229 522.931C781.771 523.391 779.853 523.621 777.475 523.621C775.097 523.621 773.18 523.391 771.722 522.931C770.341 522.472 769.344 521.705 768.73 520.633C768.193 519.483 767.848 518.487 767.695 517.645C767.618 516.725 767.58 515.384 767.58 513.622V455.929H745.487C743.033 455.929 741.23 455.661 740.079 455.124C738.929 454.511 738.161 453.592 737.778 452.366C737.394 451.14 737.203 449.531 737.203 447.539C737.203 445.547 737.394 443.976 737.778 442.827C738.161 441.601 738.813 440.758 739.734 440.299C741.115 439.609 743.071 439.264 745.602 439.264Z" fill="#F5CBFC"/>
<path d="M879.359 442.482C880.127 441.256 881.239 440.413 882.696 439.954C884.154 439.494 885.957 439.264 888.104 439.264C890.329 439.264 892.093 439.456 893.397 439.839C894.702 440.222 895.699 440.682 896.389 441.218C897.08 441.754 897.578 442.559 897.885 443.631C898.345 444.934 898.575 446.926 898.575 449.608V484.316C898.575 494.429 895.43 503.624 889.14 511.898C886.072 515.806 882.121 518.985 877.288 521.437C872.456 523.812 867.086 525 861.179 525C855.349 525 850.018 523.774 845.185 521.322C840.429 518.871 836.555 515.653 833.563 511.668C827.35 503.547 824.243 494.353 824.243 484.086V449.493C824.243 447.654 824.282 446.313 824.358 445.47C824.512 444.551 824.895 443.517 825.509 442.367C826.123 441.218 827.158 440.413 828.616 439.954C830.073 439.494 832.029 439.264 834.484 439.264C836.939 439.264 838.895 439.494 840.352 439.954C841.81 440.413 842.807 441.218 843.344 442.367C844.265 444.129 844.725 446.543 844.725 449.608V484.086C844.725 488.76 845.875 493.203 848.177 497.417C849.327 499.563 851.053 501.287 853.355 502.589C855.656 503.892 858.379 504.543 861.524 504.543C867.124 504.543 871.305 502.474 874.066 498.337C876.828 494.199 878.209 489.411 878.209 483.971V448.803C878.209 445.815 878.592 443.708 879.359 442.482Z" fill="#F5CBFC"/>
<path d="M917.974 439.264L939.261 439.379C950.384 439.379 960.164 443.402 968.603 451.447C977.041 459.415 981.26 469.26 981.26 480.983C981.26 492.629 977.117 502.627 968.833 510.979C960.625 519.33 950.652 523.506 938.916 523.506H917.859C913.179 523.506 910.264 522.548 909.114 520.633C908.193 519.024 907.733 516.572 907.733 513.277V449.378C907.733 447.539 907.771 446.198 907.848 445.355C908.001 444.513 908.385 443.517 908.999 442.367C910.073 440.299 913.064 439.264 917.974 439.264ZM939.261 503.164C944.784 503.164 949.77 501.133 954.219 497.073C958.669 492.935 960.893 487.764 960.893 481.557C960.893 475.351 958.707 470.18 954.334 466.042C950.039 461.828 944.976 459.721 939.146 459.721H928.1V503.164H939.261Z" fill="#F5CBFC"/>
<path d="M988.751 449.493C988.751 447.731 988.789 446.428 988.866 445.585C989.019 444.666 989.403 443.631 990.016 442.482C991.09 440.413 994.082 439.379 998.991 439.379C1004.36 439.379 1007.54 440.797 1008.54 443.631C1008.93 444.934 1009.12 446.926 1009.12 449.608V513.507C1009.12 515.346 1009.04 516.687 1008.89 517.53C1008.81 518.373 1008.47 519.369 1007.85 520.518C1006.78 522.587 1003.79 523.621 998.876 523.621C993.507 523.621 990.362 522.165 989.441 519.254C988.981 518.028 988.751 516.074 988.751 513.392V449.493Z" fill="#F5CBFC"/>
<path d="M1057.89 438.345C1069.24 438.345 1079.1 442.444 1087.46 450.642C1095.82 458.84 1100 469.03 1100 481.213C1100 493.318 1096.01 503.662 1088.03 512.243C1080.06 520.748 1070.24 525 1058.58 525C1046.92 525 1036.98 520.786 1028.77 512.358C1020.64 503.93 1016.58 493.893 1016.58 482.247C1016.58 475.888 1017.73 469.95 1020.03 464.433C1022.33 458.84 1025.4 454.166 1029.23 450.412C1033.07 446.658 1037.48 443.708 1042.47 441.563C1047.45 439.417 1052.59 438.345 1057.89 438.345ZM1036.94 481.672C1036.94 488.491 1039.13 494.046 1043.5 498.337C1047.95 502.551 1052.9 504.658 1058.35 504.658C1063.79 504.658 1068.7 502.589 1073.07 498.452C1077.45 494.314 1079.63 488.76 1079.63 481.787C1079.63 474.815 1077.41 469.222 1072.96 465.008C1068.59 460.794 1063.68 458.687 1058.23 458.687C1052.78 458.687 1047.88 460.832 1043.5 465.123C1039.13 469.337 1036.94 474.853 1036.94 481.672Z" fill="#F5CBFC"/>
<path d="M98.9796 295.62C95.4376 292.137 90.6305 292.339 86.4684 296.06C85.4845 296.945 84.5856 298.053 83.692 299.154L83.69 299.157C81.8762 301.392 80.0852 303.599 77.6481 303.865C75.0939 304.081 73.4386 301.93 71.7433 299.727L71.7404 299.724L71.7395 299.723C70.8164 298.524 69.8816 297.309 68.7824 296.452C68.66 296.41 68.5926 296.314 68.5251 296.218L68.5241 296.217C68.4904 296.169 68.4566 296.12 68.4162 296.079C63.8922 292.218 58.8405 292.171 55.2946 295.897C51.9347 299.44 52.1984 304.31 55.9171 308.595C56.8087 309.63 57.9717 310.567 59.1221 311.495C61.355 313.294 63.5397 315.055 63.5998 317.414C63.5763 319.991 61.3221 321.785 59.0329 323.606L59.0319 323.607C57.819 324.571 56.5963 325.544 55.6901 326.645C52.2033 330.679 52.0314 335.976 55.3888 339.396C58.5016 342.566 63.862 342.554 67.7741 339.201C70.0714 337.312 72.3083 335.238 74.0548 332.913C76.4874 329.67 78.2677 330.364 80.5851 332.973C82.6583 335.333 84.9787 337.572 87.3629 339.627C91.0309 342.741 95.7785 342.354 99.0758 338.872C102.311 335.451 102.474 331.14 99.3654 327.476C97.2921 325.116 95.0944 322.878 92.7106 320.823C90.0211 318.457 89.6686 316.606 92.5871 314.106C95.133 311.973 97.4357 309.468 99.5529 307.023C102.604 303.539 102.215 298.915 98.9796 295.62Z" fill="#F7CB05"/>
<path fill-rule="evenodd" clip-rule="evenodd" d="M80.8931 169.295C100.263 148.148 123.098 131 149.487 119.36C181.74 105.233 215.06 98.9242 249.624 109.675C269.171 115.717 286.586 125.846 301.869 139.53C307.289 144.772 311.642 150.547 313.419 158.011C315.73 167.785 322.216 173.915 330.657 178.269C333.58 179.777 336.449 181.359 339.313 182.938L339.315 182.939L339.317 182.94C344.723 185.921 350.111 188.891 355.802 191.331C361.933 193.907 363.799 199.149 361.577 205.28C358.823 212.477 353.581 217.72 347.805 222.251C344.607 224.561 340.52 225.45 336.877 222.695C324.793 213.455 310.487 211.056 296.093 210.7C256.021 209.368 223.501 225.716 197.379 255.571C172.766 283.737 157.217 317.234 142.646 351.176C130.461 379.941 118.41 408.751 106.366 437.543L106.359 437.56C101.367 449.493 96.3761 461.424 91.3777 473.348C85.0692 488.364 78.6718 492.451 62.5007 490.674C50.2391 489.43 40.7319 483.121 34.2457 473.259C11.233 437.984 -0.762131 399.156 0.0375388 356.773C0.4818 327.363 6.52377 298.931 16.2975 271.209C25.8936 244.375 38.0664 218.875 56.37 197.017C62.2342 189.909 74.5846 176.137 80.8931 169.295ZM272.725 203.326C273.227 203.828 273.651 203.778 274.144 203.325H274.142C273.64 203.768 273.143 203.744 272.725 203.326ZM272.836 203.325C272.799 203.325 272.762 203.326 272.725 203.326L272.836 203.325ZM85.6912 390.182C86.4314 389.909 87.1202 389.619 87.7277 389.222C87.1199 389.619 86.4306 389.909 85.6903 390.181C82.5763 390.688 81.1741 393.025 79.7998 395.315L79.7992 395.316C79.4875 395.836 79.1773 396.353 78.8488 396.845C69.1639 412.039 65.0767 429.276 61.1672 446.514C60.8899 447.799 60.577 449.077 60.2647 450.352C59.4762 453.572 58.6924 456.773 58.5015 460.019C58.4126 467.038 54.5033 470.948 49.1721 474.502C48.6507 474.869 48.209 475.064 47.8261 475.134C48.2092 475.065 48.6512 474.87 49.173 474.503C54.5041 470.949 58.4135 467.039 58.5023 460.02C58.6933 456.774 59.4769 453.574 60.2654 450.354C60.5777 449.078 60.8908 447.8 61.1681 446.514C65.0776 429.277 69.1648 412.04 78.8497 396.846C79.1783 396.353 79.4888 395.836 79.8007 395.316C81.175 393.025 82.5772 390.689 85.6912 390.182ZM276.635 202.97L276.634 202.97C292.716 201.637 308.532 202.703 324.081 207.234C331.722 209.545 335.276 207.412 339.275 199.86C339.774 198.902 340.143 197.988 340.355 197.122C340.143 197.989 339.775 198.903 339.276 199.86C335.277 207.413 331.723 209.545 324.082 207.235C308.533 202.703 292.717 201.637 276.635 202.97ZM275.182 202.701C274.873 202.811 274.569 203.006 274.266 203.234L274.264 203.235C274.568 203.006 274.872 202.81 275.182 202.701ZM306.223 160.588C306.691 162.547 307.279 164.396 307.983 166.14C307.279 164.396 306.69 162.547 306.222 160.587C304.622 154.367 300.535 149.392 295.915 144.949L295.916 144.95C300.536 149.392 304.623 154.368 306.223 160.588ZM151.734 172.881C146.301 167.347 146.251 159.461 151.658 154.273C157.005 149.024 165.322 149.038 170.388 154.322C175.453 159.605 175.313 168.168 170.029 173.233C164.871 178.176 156.801 178.041 151.734 172.881ZM122.207 315.795C121.862 333.228 114.161 346.65 99.7794 356.253C90.2511 360.602 80.4928 363.223 69.8498 361.462C52.6862 358.655 37.2936 344.097 33.6906 327.121C29.9728 309.281 37.4137 290.62 52.1056 280.835C80.7438 261.874 117.249 278.659 121.495 312.831C121.571 313.49 121.757 314.149 121.943 314.809C122.036 315.138 122.128 315.466 122.207 315.795ZM169.226 193.681C163.978 188.211 155.846 188.136 150.622 193.387C144.965 198.942 144.896 206.458 150.391 211.93C155.579 217.215 164.204 217.294 169.119 212.102C174.033 207.033 174.11 198.655 169.226 193.681ZM189.305 187.642C194.589 182.577 202.721 182.651 207.665 187.687C212.854 192.972 212.899 201.474 207.923 206.604C202.824 211.733 194.138 211.592 189.073 206.308C183.762 200.899 183.836 192.891 189.305 187.642Z" fill="#F7CB05"/>
<path d="M118.2 0.228695C100.856 3.39767 91.5101 6.16568 79.4581 11.7027C36.3251 31.5187 7.52003 73.3367 3.26704 122.315C0.86006 150.033 7.70006 179.664 20.673 197.721C23.796 202.069 24.1031 203.057 23.5581 207.03C22.6831 213.417 23.837 218.026 27.2181 221.646C27.4522 221.896 27.6669 222.13 27.863 222.35C30.5894 217.579 33.9614 212.184 38 206.5C40.8225 202.528 43.4104 199.038 45.7354 196.011L44.065 195.429C42.412 194.853 39.138 194.598 36.7901 194.863C32.6441 195.33 32.427 195.21 29.393 190.735C24.115 182.951 19.1691 170.951 16.6361 159.782C13.647 146.608 13.2481 123.866 15.772 110.56C23.313 70.8047 48.1061 38.6607 84.3171 21.6927C102.404 13.2167 118.939 10.0767 141.067 10.9167C176.515 12.2637 205.622 26.0607 256.2 65.4937C293.822 94.8257 310.114 103.666 337.986 109.87C350.958 112.757 387.475 113.105 398.835 110.449C427.191 103.821 446.497 86.5097 452.685 62.1657C455.398 51.4917 454.318 46.6257 449.236 46.6257C445.594 46.6257 443.2 48.9617 443.2 52.5157C443.2 61.7177 436.187 75.5217 427.257 83.8967C414.325 96.0247 400.544 100.643 375.2 101.341C336.267 102.413 310.864 93.4017 274.7 65.6927C269.2 61.4787 259.75 54.2207 253.7 49.5637C219.332 23.1087 194.144 9.59671 166.074 2.55371C159.452 0.892696 153.829 0.38168 139.2 0.112698C129.025 -0.0753212 119.575 -0.0223121 118.2 0.228695Z" fill="#F5CBFC"/>
<path d="M98.9788 295.62C102.214 298.915 102.603 303.539 99.552 307.023C97.4348 309.468 95.1322 311.973 92.5866 314.106C89.668 316.605 90.0207 318.457 92.7099 320.823C95.0939 322.878 97.2914 325.116 99.3646 327.476C102.473 331.14 102.31 335.451 99.0753 338.872C95.778 342.353 91.0304 342.741 87.3622 339.627C84.9782 337.572 82.6575 335.333 80.5843 332.973C78.267 330.364 76.4866 329.67 74.054 332.913C72.3076 335.238 70.0706 337.312 67.7737 339.201C63.8614 342.554 58.5011 342.566 55.388 339.396C52.0307 335.976 52.2024 330.679 55.6897 326.645C58.3065 323.465 63.5628 321.357 63.5989 317.414C63.5084 313.84 58.5381 311.638 55.9167 308.595C52.1977 304.309 51.9342 299.44 55.2937 295.897C58.8397 292.171 63.8914 292.218 68.4153 296.079C68.5374 296.203 68.5973 296.389 68.7815 296.452C71.9014 298.883 73.7011 304.198 77.6473 303.865C81.286 303.467 83.4857 298.743 86.4676 296.06C90.6297 292.339 95.4372 292.137 98.9788 295.62Z" fill="#F5CBFC"/>
</svg>
