<svg width="396" height="130" viewBox="0 0 396 130" fill="none" xmlns="http://www.w3.org/2000/svg">
<g clip-path="url(#clip0_26_7)">
<path d="M38.2691 122.998C38.2691 122.998 38.2691 95.614 75.9196 95.614C113.58 95.614 113.57 122.998 113.57 122.998H38.2691Z" fill="#765338"/>
<path d="M75.9208 95.6151L38.2702 123L15 51.3088L75.9208 95.6151Z" fill="#B7835A"/>
<path d="M75.9207 95.6151L136.84 51.3088L113.57 122.999L75.9207 95.6151Z" fill="#5B422D"/>
<path d="M78.7146 97.6438L75.9207 99.6757L73.1246 97.6438C73.1246 95.6118 75.9196 95.6118 75.9196 95.6118C75.9196 95.6118 78.7146 95.6118 78.7146 97.6438Z" fill="#72B147"/>
<path d="M75.9207 95.6152C75.9207 95.6152 75.9207 51.3088 136.84 51.3088L135.113 56.6305L128.063 65.8229L121.013 66.8852L113.964 76.0776L106.914 77.1388L99.8645 86.3323L92.8146 87.3935L85.7646 96.5858L78.7157 97.6482L75.9207 95.6152Z" fill="#5A9A30"/>
<path d="M73.1246 97.6438L66.0758 96.5826L59.0258 87.3891L51.9758 86.3279L44.9259 77.1355L37.8759 76.0732L30.8271 66.8808L23.7771 65.8185L16.7272 56.6261L15 51.3044C75.9197 51.3044 75.9197 95.6107 75.9197 95.6107L73.1246 97.6438Z" fill="#88B858"/>
<path d="M15.0061 51.3076L75.9226 95.6075L136.839 51.3076L75.9226 7L15.0061 51.3076Z" fill="url(#paint0_linear_26_7)"/>
<path d="M177.168 44.2102C181.168 44.2102 184.587 44.8942 187.424 46.2621C190.26 47.5784 192.437 49.5029 193.957 52.0354C195.527 54.568 196.312 57.6321 196.312 61.2278C196.312 63.4055 195.983 65.5578 195.324 67.6847C194.666 69.7608 193.602 71.6603 192.134 73.383C190.716 75.0542 188.842 76.3963 186.513 77.4093C184.183 78.4224 181.347 78.9285 178.004 78.9278H169.875V99.1368H162.506V44.2091L177.168 44.2102ZM177.928 71.8635C180.105 71.8635 181.903 71.509 183.321 70.8C184.74 70.091 185.854 69.2046 186.664 68.1408C187.474 67.0269 188.056 65.8622 188.411 64.6467C188.766 63.4313 188.943 62.3424 188.943 61.3802C188.943 60.2655 188.766 59.1259 188.411 57.9612C188.057 56.7457 187.449 55.6569 186.589 54.6946C185.778 53.6816 184.689 52.871 183.321 52.2629C182.005 51.6048 180.359 51.2757 178.384 51.2757H169.875V71.8635H177.928ZM198.522 83.1672C198.522 80.0273 199.256 77.191 200.724 74.6585C202.244 72.1259 204.32 70.1256 206.953 68.6576C209.587 67.1889 212.575 66.4545 215.918 66.4545C219.362 66.4545 222.376 67.1889 224.958 68.6576C227.542 70.1264 229.542 72.1266 230.96 74.6585C232.378 77.191 233.087 80.0273 233.087 83.1672C233.087 86.3072 232.378 89.1685 230.96 91.7511C229.542 94.2837 227.517 96.2843 224.883 97.7531C222.3 99.2218 219.286 99.9562 215.842 99.9562C212.5 99.9562 209.511 99.2726 206.877 97.9055C204.295 96.4868 202.244 94.5366 200.724 92.0548C199.255 89.5222 198.521 86.5597 198.521 83.1672H198.522ZM205.586 83.2445C205.586 85.2699 206.042 87.1181 206.953 88.7893C207.865 90.4105 209.08 91.7021 210.6 92.6644C212.17 93.6266 213.892 94.1077 215.766 94.1077C217.741 94.1077 219.489 93.6266 221.008 92.6644C222.578 91.7021 223.794 90.4105 224.655 88.7893C225.516 87.1181 225.947 85.2695 225.947 83.2434C225.947 81.2174 225.516 79.3942 224.655 77.7738C223.793 76.1026 222.578 74.7858 221.008 73.8236C219.489 72.8106 217.741 72.3041 215.766 72.3041C213.841 72.3041 212.094 72.8106 210.524 73.8236C209.005 74.8366 207.789 76.1788 206.877 77.85C206.016 79.4704 205.585 81.2682 205.585 83.2434L205.586 83.2445ZM238.014 40.3838H245.079V99.1843H238.014V40.3838ZM255.31 114.318L276.05 67.7488H282.584L262.3 114.318H255.31ZM263.059 99.4272L247.941 67.7477H255.918L268.605 95.8558L263.059 99.4272ZM286.078 99.1633V48.4917H286.147L312.491 85.7889L309.13 85.049L335.34 48.4917H335.475V99.1633H327.679V66.1663L328.216 70.1308L310.476 95.1988H310.341L292.329 70.1308L293.674 66.502V99.1633H286.078ZM380.523 95.3368C379.806 95.8301 378.731 96.4349 377.298 97.1512C375.908 97.8675 374.228 98.4948 372.258 99.033C370.331 99.5262 368.18 99.75 365.805 99.7044C361.997 99.6587 358.57 98.987 355.524 97.689C352.477 96.3447 349.901 94.5524 347.795 92.3121C345.689 90.0269 344.054 87.4281 342.889 84.5156C341.769 81.559 341.209 78.4227 341.209 75.1068C341.209 71.389 341.791 67.984 342.957 64.8919C344.122 61.7998 345.78 59.1344 347.93 56.8955C350.08 54.6103 352.634 52.8405 355.591 51.586C358.548 50.3315 361.774 49.7042 365.268 49.7042C368.36 49.7042 371.115 50.1298 373.534 50.9808C375.998 51.7877 378.059 52.7065 379.716 53.7372L376.625 61.0621C375.371 60.2111 373.803 59.3596 371.921 58.5078C370.039 57.6568 367.911 57.2312 365.537 57.2312C363.386 57.2312 361.325 57.6792 359.354 58.5752C357.382 59.4263 355.657 60.6583 354.179 62.2714C352.701 63.8395 351.513 65.6763 350.617 67.7819C349.766 69.8875 349.341 72.1727 349.341 74.6375C349.341 77.1907 349.721 79.5429 350.483 81.6941C351.29 83.8438 352.41 85.7028 353.843 87.2709C355.321 88.7948 357.069 90.0048 359.085 90.9008C361.146 91.7518 363.453 92.1774 366.007 92.1774C368.516 92.1774 370.712 91.7964 372.593 91.0344C374.519 90.2282 376.065 89.3323 377.23 88.3465L380.523 95.3368Z" fill="white"/>
</g>
<defs>
<linearGradient id="paint0_linear_26_7" x1="45.4605" y1="29.15" x2="106.421" y2="73.3975" gradientUnits="userSpaceOnUse">
<stop stop-color="#88B858"/>
<stop offset="0.5" stop-color="#72B147"/>
<stop offset="1" stop-color="#5A9A30"/>
</linearGradient>
<clipPath id="clip0_26_7">
<rect width="396" height="130" fill="white"/>
</clipPath>
</defs>
</svg>
